<svg width="304" height="73" viewBox="0 0 304 73" fill="none" xmlns="http://www.w3.org/2000/svg">
<mask id="path-1-outside-1_6_39" maskUnits="userSpaceOnUse" x="4" y="2.5" width="298" height="65" fill="black">
<rect fill="white" x="4" y="2.5" width="298" height="65"/>
<path d="M13.3984 17.4648C14.974 16.944 16.4518 16.4622 17.832 16.0195C19.2253 15.5768 20.6901 15.1602 22.2266 14.7695C23.763 14.3659 25.2344 14.0469 26.6406 13.8125C27.7214 13.6302 28.8281 13.5391 29.9609 13.5391C31.849 13.5391 33.0859 13.5911 33.6719 13.6953C34.5573 13.8646 35.3906 14.138 36.1719 14.5156C36.9661 14.8932 37.6693 15.401 38.2812 16.0391C38.9062 16.6641 39.4141 17.4062 39.8047 18.2656C39.9609 18.6172 40.0391 18.9883 40.0391 19.3789C40.0391 20.8372 39.2383 22.6341 37.6367 24.7695C36.0482 26.9049 34.4466 28.7669 32.832 30.3555C31.2305 31.944 30.0326 33.0833 29.2383 33.7734L32.7539 46.0977L27.6367 49.7891L18.6719 24.1836C18.6458 24.1836 18.5221 24.3073 18.3008 24.5547C18.0794 24.8021 17.7865 25.1276 17.4219 25.5312C17.0703 25.9219 16.849 26.1628 16.7578 26.2539C16.7188 26.2539 16.5885 25.974 16.3672 25.4141C16.1589 24.8542 15.8724 24.0794 15.5078 23.0898C15.1562 22.0872 14.7591 20.9805 14.3164 19.7695C13.8607 18.5456 13.5547 17.7773 13.3984 17.4648ZM26.0352 22.8945L27.6367 28.6562C28.444 27.8359 29.4466 26.7161 30.6445 25.2969C31.8424 23.8776 32.4414 22.849 32.4414 22.2109C32.4414 21.9635 32.3372 21.8203 32.1289 21.7812C31.543 21.651 30.9635 21.5859 30.3906 21.5859C28.6719 21.5859 27.2201 22.0221 26.0352 22.8945ZM62.707 27.3477C63.6315 27.8424 64.3802 28.513 64.9531 29.3594C65.5391 30.1927 65.9622 31.1367 66.2227 32.1914C66.4961 33.2331 66.6328 34.3203 66.6328 35.4531C66.6328 36.3906 66.5547 37.2956 66.3984 38.168C66.2552 39.0404 66.0534 39.8411 65.793 40.5703C65.5326 41.2995 65.2266 41.918 64.875 42.4258C64.0547 43.6497 63.1758 44.7044 62.2383 45.5898C61.3008 46.4753 60.3438 47.1914 59.3672 47.7383C58.3906 48.2721 57.4206 48.6628 56.457 48.9102C55.5065 49.1706 54.5625 49.3008 53.625 49.3008C52.5182 49.3008 51.4635 49.125 50.4609 48.7734C49.4714 48.4349 48.625 47.9857 47.9219 47.4258C46.763 46.4622 45.8581 45.1667 45.207 43.5391C44.556 41.8984 44.2305 40.1667 44.2305 38.3438C44.2305 35.2057 45.1354 32.6732 46.9453 30.7461C48.4948 29.0924 50.0964 27.849 51.75 27.0156C53.4036 26.1693 55.0964 25.7461 56.8281 25.7461C57.8438 25.7461 58.8203 25.8763 59.7578 26.1367C60.6953 26.3841 61.6784 26.7878 62.707 27.3477ZM61.5547 30.6289C61.3333 31.6185 60.8516 32.4909 60.1094 33.2461C59.3802 34.0013 58.6641 34.3789 57.9609 34.3789C57.6094 34.3789 57.2969 34.2878 57.0234 34.1055C56.6328 33.793 56.4375 33.2461 56.4375 32.4648C56.4375 31.8659 56.6328 31.2734 57.0234 30.6875C57.4271 30.1016 58.0586 29.6393 58.918 29.3008C58.0586 29.3008 57.2253 29.4635 56.418 29.7891C55.6237 30.1146 54.9401 30.5378 54.3672 31.0586C53.7943 31.5664 53.332 32.1458 52.9805 32.7969C52.6419 33.4349 52.4727 34.0794 52.4727 34.7305C52.4727 35.9414 53.0326 36.9049 54.1523 37.6211C55.194 38.2852 56.1836 38.6172 57.1211 38.6172C58.0456 38.6172 58.8659 38.3112 59.582 37.6992C60.2982 37.0742 60.8451 36.2799 61.2227 35.3164C61.6003 34.3398 61.7891 33.3763 61.7891 32.4258C61.7891 31.7747 61.7109 31.1758 61.5547 30.6289ZM71.3906 15.8633L81.3125 11.7031L82.7578 34.2617L90.9219 29.7891L99.3984 31.0586L88.3438 39.5352L98.7539 47.3867L99.2227 55.2188L83.8711 44.1836L84.3594 53.7734L75.0625 53.9492L73.3047 20.0234L70.4336 20.668L71.3906 15.8633ZM120.992 37.6992L125.699 43.3828C125.322 44.4766 124.423 45.4792 123.004 46.3906C121.598 47.3021 119.918 48.0182 117.965 48.5391C116.025 49.0729 114.085 49.3398 112.145 49.3398C110.426 49.3398 108.889 49.112 107.535 48.6562C106.194 48.2005 105.159 47.5104 104.43 46.5859C103.167 44.9974 102.535 42.9661 102.535 40.4922C102.535 38.5391 102.887 36.6185 103.59 34.7305C104.306 32.8294 105.061 31.5013 105.855 30.7461C106.806 29.8477 107.835 29.099 108.941 28.5C110.061 27.901 111.22 27.4518 112.418 27.1523C113.616 26.8529 114.846 26.7031 116.109 26.7031C117.763 26.7031 119.332 26.9701 120.816 27.5039C122.314 28.0247 123.622 28.7865 124.742 29.7891L114.02 42.582C114.97 42.582 115.868 42.3867 116.715 41.9961C117.574 41.5924 118.362 41.026 119.078 40.2969C119.794 39.5547 120.432 38.6888 120.992 37.6992ZM115.582 33.1484C114.944 32.8229 114.293 32.6602 113.629 32.6602C112.926 32.6602 112.242 32.8034 111.578 33.0898C110.927 33.3763 110.465 33.7148 110.191 34.1055C109.384 35.1471 108.98 36.293 108.98 37.543C108.98 37.9987 109.026 38.4349 109.117 38.8516C109.208 39.2682 109.365 39.8411 109.586 40.5703L115.582 33.1484ZM185.938 23.8516L177.188 29.5742C176.602 28.1159 174.642 27.3867 171.309 27.3867C170.553 27.3867 169.779 27.9271 168.984 29.0078C168.19 30.0885 167.793 31.306 167.793 32.6602C167.858 33.6888 168.164 34.6784 168.711 35.6289C169.258 36.5664 170.228 37.0677 171.621 37.1328C172.663 37.1328 173.757 36.8529 174.902 36.293C176.048 35.7331 177.038 34.6133 177.871 32.9336C177.923 33.0378 178.464 33.526 179.492 34.3984C180.521 35.2708 181.569 36.1432 182.637 37.0156C183.717 37.888 184.512 38.5326 185.02 38.9492C184.03 41.319 182.721 43.1745 181.094 44.5156C179.466 45.8568 177.76 46.7747 175.977 47.2695C174.193 47.7643 172.422 48.0117 170.664 48.0117C168.203 48.0117 166.035 47.5495 164.16 46.625C162.298 45.6875 160.768 44.0924 159.57 41.8398C158.372 39.5742 157.643 36.5143 157.383 32.6602C157.357 32.2826 157.344 31.7096 157.344 30.9414C157.344 29.0143 157.572 27.1654 158.027 25.3945C158.47 23.6237 159.199 22.0286 160.215 20.6094C161.243 19.1771 162.656 18.0117 164.453 17.1133C166.25 16.2148 168.424 15.7461 170.977 15.707C172.669 15.707 174.336 15.9089 175.977 16.3125C177.617 16.7031 179.121 17.2565 180.488 17.9727C181.855 18.6758 183.027 19.5417 184.004 20.5703C184.993 21.5859 185.638 22.6797 185.938 23.8516ZM214.055 29.457L207.16 33.9492C206.822 33.0768 206.366 32.3346 205.793 31.7227C205.233 31.0977 204.654 30.7852 204.055 30.7852C203.195 30.7852 202.473 31.4622 201.887 32.8164C201.327 34.1185 201.047 36.3971 201.047 39.6523C201.047 41.931 201.164 44.6133 201.398 47.6992L191.809 48.8125C191.249 44.7891 190.969 41.2018 190.969 38.0508C190.969 37.5299 190.995 36.8138 191.047 35.9023L190.695 24.4961L198.371 23.5391L199.484 24.8281C200.396 24.5156 201.236 24.2487 202.004 24.0273C202.785 23.806 203.514 23.6302 204.191 23.5C204.868 23.3698 205.526 23.3047 206.164 23.3047C207.453 23.3047 208.586 23.5977 209.562 24.1836C210.799 24.8737 211.776 25.5898 212.492 26.332C213.221 27.0742 213.742 28.1159 214.055 29.457ZM239.008 37.6992L243.715 43.3828C243.337 44.4766 242.439 45.4792 241.02 46.3906C239.613 47.3021 237.934 48.0182 235.98 48.5391C234.04 49.0729 232.1 49.3398 230.16 49.3398C228.441 49.3398 226.905 49.112 225.551 48.6562C224.21 48.2005 223.174 47.5104 222.445 46.5859C221.182 44.9974 220.551 42.9661 220.551 40.4922C220.551 38.5391 220.902 36.6185 221.605 34.7305C222.322 32.8294 223.077 31.5013 223.871 30.7461C224.822 29.8477 225.85 29.099 226.957 28.5C228.077 27.901 229.236 27.4518 230.434 27.1523C231.632 26.8529 232.862 26.7031 234.125 26.7031C235.779 26.7031 237.348 26.9701 238.832 27.5039C240.329 28.0247 241.638 28.7865 242.758 29.7891L232.035 42.582C232.986 42.582 233.884 42.3867 234.73 41.9961C235.59 41.5924 236.378 41.026 237.094 40.2969C237.81 39.5547 238.448 38.6888 239.008 37.6992ZM233.598 33.1484C232.96 32.8229 232.309 32.6602 231.645 32.6602C230.941 32.6602 230.258 32.8034 229.594 33.0898C228.943 33.3763 228.48 33.7148 228.207 34.1055C227.4 35.1471 226.996 36.293 226.996 37.543C226.996 37.9987 227.042 38.4349 227.133 38.8516C227.224 39.2682 227.38 39.8411 227.602 40.5703L233.598 33.1484ZM270.289 42.4258L266.598 50.7461L257.477 50.9023L246.93 24.0273L257.633 24.4961L262.281 36.8203L265.035 29.3789L262.926 24.0273L273.648 24.4961L278.277 36.8203L282.926 24.8281L292.848 25.7852L282.77 51.2148L273.473 50.9023L270.289 42.4258Z"/>
</mask>
<path d="M13.3984 17.4648C14.974 16.944 16.4518 16.4622 17.832 16.0195C19.2253 15.5768 20.6901 15.1602 22.2266 14.7695C23.763 14.3659 25.2344 14.0469 26.6406 13.8125C27.7214 13.6302 28.8281 13.5391 29.9609 13.5391C31.849 13.5391 33.0859 13.5911 33.6719 13.6953C34.5573 13.8646 35.3906 14.138 36.1719 14.5156C36.9661 14.8932 37.6693 15.401 38.2812 16.0391C38.9062 16.6641 39.4141 17.4062 39.8047 18.2656C39.9609 18.6172 40.0391 18.9883 40.0391 19.3789C40.0391 20.8372 39.2383 22.6341 37.6367 24.7695C36.0482 26.9049 34.4466 28.7669 32.832 30.3555C31.2305 31.944 30.0326 33.0833 29.2383 33.7734L32.7539 46.0977L27.6367 49.7891L18.6719 24.1836C18.6458 24.1836 18.5221 24.3073 18.3008 24.5547C18.0794 24.8021 17.7865 25.1276 17.4219 25.5312C17.0703 25.9219 16.849 26.1628 16.7578 26.2539C16.7188 26.2539 16.5885 25.974 16.3672 25.4141C16.1589 24.8542 15.8724 24.0794 15.5078 23.0898C15.1562 22.0872 14.7591 20.9805 14.3164 19.7695C13.8607 18.5456 13.5547 17.7773 13.3984 17.4648ZM26.0352 22.8945L27.6367 28.6562C28.444 27.8359 29.4466 26.7161 30.6445 25.2969C31.8424 23.8776 32.4414 22.849 32.4414 22.2109C32.4414 21.9635 32.3372 21.8203 32.1289 21.7812C31.543 21.651 30.9635 21.5859 30.3906 21.5859C28.6719 21.5859 27.2201 22.0221 26.0352 22.8945ZM62.707 27.3477C63.6315 27.8424 64.3802 28.513 64.9531 29.3594C65.5391 30.1927 65.9622 31.1367 66.2227 32.1914C66.4961 33.2331 66.6328 34.3203 66.6328 35.4531C66.6328 36.3906 66.5547 37.2956 66.3984 38.168C66.2552 39.0404 66.0534 39.8411 65.793 40.5703C65.5326 41.2995 65.2266 41.918 64.875 42.4258C64.0547 43.6497 63.1758 44.7044 62.2383 45.5898C61.3008 46.4753 60.3438 47.1914 59.3672 47.7383C58.3906 48.2721 57.4206 48.6628 56.457 48.9102C55.5065 49.1706 54.5625 49.3008 53.625 49.3008C52.5182 49.3008 51.4635 49.125 50.4609 48.7734C49.4714 48.4349 48.625 47.9857 47.9219 47.4258C46.763 46.4622 45.8581 45.1667 45.207 43.5391C44.556 41.8984 44.2305 40.1667 44.2305 38.3438C44.2305 35.2057 45.1354 32.6732 46.9453 30.7461C48.4948 29.0924 50.0964 27.849 51.75 27.0156C53.4036 26.1693 55.0964 25.7461 56.8281 25.7461C57.8438 25.7461 58.8203 25.8763 59.7578 26.1367C60.6953 26.3841 61.6784 26.7878 62.707 27.3477ZM61.5547 30.6289C61.3333 31.6185 60.8516 32.4909 60.1094 33.2461C59.3802 34.0013 58.6641 34.3789 57.9609 34.3789C57.6094 34.3789 57.2969 34.2878 57.0234 34.1055C56.6328 33.793 56.4375 33.2461 56.4375 32.4648C56.4375 31.8659 56.6328 31.2734 57.0234 30.6875C57.4271 30.1016 58.0586 29.6393 58.918 29.3008C58.0586 29.3008 57.2253 29.4635 56.418 29.7891C55.6237 30.1146 54.9401 30.5378 54.3672 31.0586C53.7943 31.5664 53.332 32.1458 52.9805 32.7969C52.6419 33.4349 52.4727 34.0794 52.4727 34.7305C52.4727 35.9414 53.0326 36.9049 54.1523 37.6211C55.194 38.2852 56.1836 38.6172 57.1211 38.6172C58.0456 38.6172 58.8659 38.3112 59.582 37.6992C60.2982 37.0742 60.8451 36.2799 61.2227 35.3164C61.6003 34.3398 61.7891 33.3763 61.7891 32.4258C61.7891 31.7747 61.7109 31.1758 61.5547 30.6289ZM71.3906 15.8633L81.3125 11.7031L82.7578 34.2617L90.9219 29.7891L99.3984 31.0586L88.3438 39.5352L98.7539 47.3867L99.2227 55.2188L83.8711 44.1836L84.3594 53.7734L75.0625 53.9492L73.3047 20.0234L70.4336 20.668L71.3906 15.8633ZM120.992 37.6992L125.699 43.3828C125.322 44.4766 124.423 45.4792 123.004 46.3906C121.598 47.3021 119.918 48.0182 117.965 48.5391C116.025 49.0729 114.085 49.3398 112.145 49.3398C110.426 49.3398 108.889 49.112 107.535 48.6562C106.194 48.2005 105.159 47.5104 104.43 46.5859C103.167 44.9974 102.535 42.9661 102.535 40.4922C102.535 38.5391 102.887 36.6185 103.59 34.7305C104.306 32.8294 105.061 31.5013 105.855 30.7461C106.806 29.8477 107.835 29.099 108.941 28.5C110.061 27.901 111.22 27.4518 112.418 27.1523C113.616 26.8529 114.846 26.7031 116.109 26.7031C117.763 26.7031 119.332 26.9701 120.816 27.5039C122.314 28.0247 123.622 28.7865 124.742 29.7891L114.02 42.582C114.97 42.582 115.868 42.3867 116.715 41.9961C117.574 41.5924 118.362 41.026 119.078 40.2969C119.794 39.5547 120.432 38.6888 120.992 37.6992ZM115.582 33.1484C114.944 32.8229 114.293 32.6602 113.629 32.6602C112.926 32.6602 112.242 32.8034 111.578 33.0898C110.927 33.3763 110.465 33.7148 110.191 34.1055C109.384 35.1471 108.98 36.293 108.98 37.543C108.98 37.9987 109.026 38.4349 109.117 38.8516C109.208 39.2682 109.365 39.8411 109.586 40.5703L115.582 33.1484ZM185.938 23.8516L177.188 29.5742C176.602 28.1159 174.642 27.3867 171.309 27.3867C170.553 27.3867 169.779 27.9271 168.984 29.0078C168.19 30.0885 167.793 31.306 167.793 32.6602C167.858 33.6888 168.164 34.6784 168.711 35.6289C169.258 36.5664 170.228 37.0677 171.621 37.1328C172.663 37.1328 173.757 36.8529 174.902 36.293C176.048 35.7331 177.038 34.6133 177.871 32.9336C177.923 33.0378 178.464 33.526 179.492 34.3984C180.521 35.2708 181.569 36.1432 182.637 37.0156C183.717 37.888 184.512 38.5326 185.02 38.9492C184.03 41.319 182.721 43.1745 181.094 44.5156C179.466 45.8568 177.76 46.7747 175.977 47.2695C174.193 47.7643 172.422 48.0117 170.664 48.0117C168.203 48.0117 166.035 47.5495 164.16 46.625C162.298 45.6875 160.768 44.0924 159.57 41.8398C158.372 39.5742 157.643 36.5143 157.383 32.6602C157.357 32.2826 157.344 31.7096 157.344 30.9414C157.344 29.0143 157.572 27.1654 158.027 25.3945C158.47 23.6237 159.199 22.0286 160.215 20.6094C161.243 19.1771 162.656 18.0117 164.453 17.1133C166.25 16.2148 168.424 15.7461 170.977 15.707C172.669 15.707 174.336 15.9089 175.977 16.3125C177.617 16.7031 179.121 17.2565 180.488 17.9727C181.855 18.6758 183.027 19.5417 184.004 20.5703C184.993 21.5859 185.638 22.6797 185.938 23.8516ZM214.055 29.457L207.16 33.9492C206.822 33.0768 206.366 32.3346 205.793 31.7227C205.233 31.0977 204.654 30.7852 204.055 30.7852C203.195 30.7852 202.473 31.4622 201.887 32.8164C201.327 34.1185 201.047 36.3971 201.047 39.6523C201.047 41.931 201.164 44.6133 201.398 47.6992L191.809 48.8125C191.249 44.7891 190.969 41.2018 190.969 38.0508C190.969 37.5299 190.995 36.8138 191.047 35.9023L190.695 24.4961L198.371 23.5391L199.484 24.8281C200.396 24.5156 201.236 24.2487 202.004 24.0273C202.785 23.806 203.514 23.6302 204.191 23.5C204.868 23.3698 205.526 23.3047 206.164 23.3047C207.453 23.3047 208.586 23.5977 209.562 24.1836C210.799 24.8737 211.776 25.5898 212.492 26.332C213.221 27.0742 213.742 28.1159 214.055 29.457ZM239.008 37.6992L243.715 43.3828C243.337 44.4766 242.439 45.4792 241.02 46.3906C239.613 47.3021 237.934 48.0182 235.98 48.5391C234.04 49.0729 232.1 49.3398 230.16 49.3398C228.441 49.3398 226.905 49.112 225.551 48.6562C224.21 48.2005 223.174 47.5104 222.445 46.5859C221.182 44.9974 220.551 42.9661 220.551 40.4922C220.551 38.5391 220.902 36.6185 221.605 34.7305C222.322 32.8294 223.077 31.5013 223.871 30.7461C224.822 29.8477 225.85 29.099 226.957 28.5C228.077 27.901 229.236 27.4518 230.434 27.1523C231.632 26.8529 232.862 26.7031 234.125 26.7031C235.779 26.7031 237.348 26.9701 238.832 27.5039C240.329 28.0247 241.638 28.7865 242.758 29.7891L232.035 42.582C232.986 42.582 233.884 42.3867 234.73 41.9961C235.59 41.5924 236.378 41.026 237.094 40.2969C237.81 39.5547 238.448 38.6888 239.008 37.6992ZM233.598 33.1484C232.96 32.8229 232.309 32.6602 231.645 32.6602C230.941 32.6602 230.258 32.8034 229.594 33.0898C228.943 33.3763 228.48 33.7148 228.207 34.1055C227.4 35.1471 226.996 36.293 226.996 37.543C226.996 37.9987 227.042 38.4349 227.133 38.8516C227.224 39.2682 227.38 39.8411 227.602 40.5703L233.598 33.1484ZM270.289 42.4258L266.598 50.7461L257.477 50.9023L246.93 24.0273L257.633 24.4961L262.281 36.8203L265.035 29.3789L262.926 24.0273L273.648 24.4961L278.277 36.8203L282.926 24.8281L292.848 25.7852L282.77 51.2148L273.473 50.9023L270.289 42.4258Z" fill="#FAE307"/>
<path d="M13.3984 17.4648L11.5152 11.7681L4.93026 13.9449L8.03187 20.1481L13.3984 17.4648ZM17.832 16.0195L16.015 10.3013L16.0072 10.3037L15.9995 10.3062L17.832 16.0195ZM22.2266 14.7695L23.705 20.5845L23.7281 20.5787L23.7511 20.5726L22.2266 14.7695ZM26.6406 13.8125L27.627 19.7309L27.6386 19.7289L26.6406 13.8125ZM33.6719 13.6953L34.7985 7.80204L34.7603 7.79474L34.7221 7.78794L33.6719 13.6953ZM36.1719 14.5156L33.5609 19.9177L33.5783 19.9261L33.5957 19.9344L36.1719 14.5156ZM38.2812 16.0391L33.9512 20.1924L33.9944 20.2375L34.0386 20.2817L38.2812 16.0391ZM39.8047 18.2656L45.2876 15.8288L45.2773 15.8058L45.2669 15.7828L39.8047 18.2656ZM37.6367 24.7695L32.8367 21.1695L32.8297 21.1789L32.8227 21.1883L37.6367 24.7695ZM32.832 30.3555L28.624 26.0785L28.6154 26.087L28.6067 26.0955L32.832 30.3555ZM29.2383 33.7734L25.303 29.2442L22.4212 31.7481L23.4684 35.4193L29.2383 33.7734ZM32.7539 46.0977L36.2641 50.9637L39.6787 48.5005L38.5237 44.4517L32.7539 46.0977ZM27.6367 49.7891L21.9738 51.7717L24.6294 59.3567L31.1469 54.6551L27.6367 49.7891ZM18.6719 24.1836L24.3348 22.2009L22.9283 18.1836H18.6719V24.1836ZM17.4219 25.5312L12.9693 21.5095L12.9621 21.5175L17.4219 25.5312ZM16.7578 26.2539V32.2539H19.2431L21.0005 30.4965L16.7578 26.2539ZM16.3672 25.4141L10.7439 27.5065L10.7651 27.5635L10.7874 27.62L16.3672 25.4141ZM15.5078 23.0898L9.84581 25.0752L9.86143 25.1198L9.87775 25.1641L15.5078 23.0898ZM14.3164 19.7695L19.9516 17.7093L19.9455 17.6926L19.9393 17.6759L14.3164 19.7695ZM26.0352 22.8945L22.4778 18.0629L19.1464 20.5156L20.2543 24.5014L26.0352 22.8945ZM27.6367 28.6562L21.8559 30.2631L24.6348 40.2605L31.9132 32.8648L27.6367 28.6562ZM32.1289 21.7812L30.8273 27.6384L30.9249 27.6601L31.0232 27.6785L32.1289 21.7812ZM15.2817 23.1616C16.8427 22.6456 18.3035 22.1694 19.6646 21.7328L15.9995 10.3062C14.6001 10.7551 13.1052 11.2424 11.5152 11.7681L15.2817 23.1616ZM19.649 21.7378C20.9215 21.3335 22.2729 20.9486 23.705 20.5845L20.7482 8.95452C19.1073 9.37168 17.529 9.82018 16.015 10.3013L19.649 21.7378ZM23.7511 20.5726C25.1298 20.2104 26.4209 19.9319 27.627 19.7309L25.6542 7.89414C24.0479 8.16187 22.3963 8.52135 20.702 8.96645L23.7511 20.5726ZM27.6386 19.7289C28.3787 19.6041 29.1513 19.5391 29.9609 19.5391V7.53906C28.5049 7.53906 27.064 7.65633 25.6427 7.89607L27.6386 19.7289ZM29.9609 19.5391C30.8594 19.5391 31.5492 19.5516 32.0523 19.5728C32.6245 19.5969 32.7454 19.6247 32.6217 19.6027L34.7221 7.78794C33.5211 7.57443 31.7368 7.53906 29.9609 7.53906V19.5391ZM32.5452 19.5886C32.9366 19.6634 33.2689 19.7766 33.5609 19.9177L38.7829 9.11353C37.5124 8.49944 36.178 8.06576 34.7985 7.80204L32.5452 19.5886ZM33.5957 19.9344C33.73 19.9983 33.8396 20.0762 33.9512 20.1924L42.6113 11.8857C41.4989 10.7259 40.2023 9.78819 38.748 9.09682L33.5957 19.9344ZM34.0386 20.2817C34.1212 20.3642 34.2292 20.4992 34.3425 20.7484L45.2669 15.7828C44.5989 14.3133 43.6913 12.9639 42.5239 11.7964L34.0386 20.2817ZM34.3218 20.7025C34.1318 20.2748 34.0391 19.8145 34.0391 19.3789H46.0391C46.0391 18.162 45.7901 16.9595 45.2876 15.8288L34.3218 20.7025ZM34.0391 19.3789C34.0391 19.0273 34.1289 18.9947 33.9581 19.378C33.7921 19.7504 33.4567 20.3429 32.8367 21.1695L42.4367 28.3695C44.2527 25.9482 46.0391 22.8361 46.0391 19.3789H34.0391ZM32.8227 21.1883C31.3871 23.1182 29.985 24.7395 28.624 26.0785L37.04 34.6325C38.9083 32.7944 40.7093 30.6917 42.4508 28.3507L32.8227 21.1883ZM28.6067 26.0955C27.0182 27.6711 25.9383 28.6922 25.303 29.2442L33.1735 38.3027C34.1268 37.4744 35.4427 36.2169 37.0573 34.6154L28.6067 26.0955ZM23.4684 35.4193L26.9841 47.7436L38.5237 44.4517L35.0081 32.1275L23.4684 35.4193ZM29.2437 41.2316L24.1265 44.923L31.1469 54.6551L36.2641 50.9637L29.2437 41.2316ZM33.2997 47.8064L24.3348 22.2009L13.0089 26.1663L21.9738 51.7717L33.2997 47.8064ZM18.6719 18.1836C17.582 18.1836 16.7646 18.4819 16.4171 18.6224C16.0069 18.7882 15.6975 18.9663 15.5222 19.0738C15.1734 19.2876 14.9205 19.492 14.8127 19.581C14.5757 19.7769 14.3942 19.9565 14.3169 20.0337C14.1355 20.2152 13.961 20.4067 13.8293 20.5539L22.7722 28.5555C22.8619 28.4553 22.86 28.4612 22.8022 28.519C22.7868 28.5344 22.655 28.6676 22.4553 28.8326C22.3663 28.9061 22.1291 29.0989 21.7929 29.305C21.6238 29.4086 21.32 29.5838 20.9146 29.7477C20.5718 29.8863 19.7585 30.1836 18.6719 30.1836V18.1836ZM13.8293 20.5539C13.6169 20.7913 13.331 21.1091 12.9693 21.5095L21.8745 29.553C22.242 29.1461 22.542 28.8128 22.7722 28.5555L13.8293 20.5539ZM12.9621 21.5175C12.793 21.7054 12.6651 21.8462 12.5742 21.9451C12.5287 21.9946 12.4988 22.0268 12.4814 22.0453C12.4576 22.0706 12.4746 22.0518 12.5152 22.0113L21.0005 30.4965C21.2288 30.2682 21.5709 29.8903 21.8816 29.545L12.9621 21.5175ZM16.7578 20.2539C18.4946 20.2539 19.6988 20.9944 20.1688 21.3203C20.71 21.6957 21.0667 22.0773 21.2349 22.2676C21.5787 22.6566 21.7864 22.9986 21.8458 23.0969C21.9328 23.2408 21.9912 23.3528 22.0169 23.4029C22.0462 23.4603 22.0648 23.4999 22.0712 23.5136C22.0826 23.5381 22.0467 23.4605 21.947 23.2081L10.7874 27.62C10.909 27.9275 11.0489 28.2699 11.1905 28.5743C11.2496 28.7012 11.385 28.9884 11.577 29.3059C11.6576 29.4392 11.8836 29.8074 12.2429 30.214C12.4188 30.413 12.7825 30.8012 13.33 31.1809C13.8063 31.5113 15.0161 32.2539 16.7578 32.2539V20.2539ZM21.9905 23.3217C21.7855 22.7707 21.5016 22.003 21.1379 21.0156L9.87775 25.1641C10.2432 26.1559 10.5322 26.9376 10.7439 27.5065L21.9905 23.3217ZM21.1698 21.1045C20.8079 20.0723 20.4016 18.9401 19.9516 17.7093L8.68119 21.8297C9.11665 23.0208 9.50462 24.1022 9.84581 25.0752L21.1698 21.1045ZM19.9393 17.6759C19.5204 16.5509 19.0961 15.4438 18.765 14.7816L8.03187 20.1481C7.99409 20.0726 7.98928 20.0557 8.02711 20.1442C8.05902 20.2188 8.10628 20.3331 8.17101 20.4956C8.3006 20.8209 8.47356 21.2724 8.69353 21.8632L19.9393 17.6759ZM20.2543 24.5014L21.8559 30.2631L33.4175 27.0494L31.816 21.2877L20.2543 24.5014ZM31.9132 32.8648C32.8721 31.8904 33.9849 30.6416 35.2296 29.1669L26.0594 21.4269C24.9083 22.7907 24.0159 23.7814 23.3603 24.4477L31.9132 32.8648ZM35.2296 29.1669C35.9434 28.3213 36.6342 27.4126 37.1772 26.4801C37.6205 25.7188 38.4414 24.1625 38.4414 22.2109H26.4414C26.4414 21.8257 26.4861 21.5067 26.5339 21.2718C26.5818 21.0362 26.6393 20.8541 26.6827 20.7335C26.7649 20.5045 26.8315 20.3999 26.8071 20.4418C26.7883 20.4741 26.7254 20.5761 26.5939 20.7553C26.4648 20.931 26.2899 21.1538 26.0594 21.4269L35.2296 29.1669ZM38.4414 22.2109C38.4414 21.3089 38.2577 19.8216 37.2157 18.3889C36.0906 16.8419 34.5295 16.1268 33.2346 15.884L31.0232 27.6785C29.9366 27.4748 28.5318 26.8508 27.5109 25.447C26.5731 24.1575 26.4414 22.8655 26.4414 22.2109H38.4414ZM33.4305 15.9241C32.4375 15.7035 31.4216 15.5859 30.3906 15.5859V27.5859C30.5054 27.5859 30.6484 27.5986 30.8273 27.6384L33.4305 15.9241ZM30.3906 15.5859C27.6145 15.5859 24.8594 16.3094 22.4778 18.0629L29.5925 27.7262C29.6148 27.7098 29.6512 27.6858 29.7391 27.6593C29.8359 27.6303 30.0392 27.5859 30.3906 27.5859V15.5859ZM62.707 27.3477L59.8386 32.6176L59.8571 32.6277L59.8758 32.6376L62.707 27.3477ZM64.9531 29.3594L59.9845 32.7228L60.0143 32.7669L60.045 32.8104L64.9531 29.3594ZM66.2227 32.1914L60.3976 33.6297L60.4081 33.6723L60.4193 33.7148L66.2227 32.1914ZM66.3984 38.168L60.4924 37.1102L60.4847 37.153L60.4777 37.1959L66.3984 38.168ZM64.875 42.4258L59.9418 39.0105L59.9161 39.0477L59.8909 39.0854L64.875 42.4258ZM59.3672 47.7383L62.2452 53.003L62.2721 52.9883L62.2988 52.9733L59.3672 47.7383ZM56.457 48.9102L54.9649 43.0987L54.9182 43.1107L54.8716 43.1234L56.457 48.9102ZM50.4609 48.7734L52.4463 43.1114L52.4247 43.1039L52.4031 43.0965L50.4609 48.7734ZM47.9219 47.4258L44.0859 52.0394L44.1347 52.0799L44.1843 52.1195L47.9219 47.4258ZM45.207 43.5391L39.6301 45.7521L39.6331 45.7598L39.6362 45.7674L45.207 43.5391ZM46.9453 30.7461L51.3189 34.8537L51.3236 34.8486L46.9453 30.7461ZM51.75 27.0156L54.4501 32.3737L54.4669 32.3653L54.4836 32.3567L51.75 27.0156ZM59.7578 26.1367L58.1519 31.9178L58.1894 31.9282L58.2269 31.9381L59.7578 26.1367ZM61.5547 30.6289L67.3238 28.9806L55.6994 29.3192L61.5547 30.6289ZM60.1094 33.2461L55.83 29.0405L55.8114 29.0594L55.793 29.0785L60.1094 33.2461ZM57.0234 34.1055L53.2753 38.7907L53.4786 38.9533L53.6952 39.0978L57.0234 34.1055ZM57.0234 30.6875L52.0824 27.2837L52.0565 27.3213L52.0311 27.3593L57.0234 30.6875ZM58.918 29.3008L61.1171 34.8832L58.918 23.3008V29.3008ZM56.418 29.7891L54.1742 24.2244L54.1584 24.2308L54.1426 24.2372L56.418 29.7891ZM54.3672 31.0586L58.347 35.5487L58.3753 35.5236L58.4032 35.4982L54.3672 31.0586ZM52.9805 32.7969L47.701 29.946L47.6906 29.9652L47.6804 29.9846L52.9805 32.7969ZM54.1523 37.6211L50.9197 42.6758L50.927 42.6805L54.1523 37.6211ZM59.582 37.6992L63.4799 42.2606L63.5037 42.2403L63.5272 42.2198L59.582 37.6992ZM61.2227 35.3164L66.809 37.5056L66.814 37.493L66.8189 37.4803L61.2227 35.3164ZM59.8758 32.6376C59.9343 32.669 59.9561 32.6886 59.9589 32.6911C59.9616 32.6935 59.9638 32.6958 59.9666 32.699C59.9694 32.7022 59.9755 32.7095 59.9845 32.7228L69.9218 25.996C68.7887 24.3221 67.2978 22.9994 65.5383 22.0577L59.8758 32.6376ZM60.045 32.8104C60.1754 32.996 60.3035 33.2486 60.3976 33.6297L72.0477 30.7531C71.621 29.0249 70.9027 27.3894 69.8613 25.9083L60.045 32.8104ZM60.4193 33.7148C60.5556 34.2341 60.6328 34.8078 60.6328 35.4531H72.6328C72.6328 33.8328 72.4366 32.2321 72.026 30.668L60.4193 33.7148ZM60.6328 35.4531C60.6328 36.0563 60.5827 36.6064 60.4924 37.1102L72.3045 39.2258C72.5267 37.9848 72.6328 36.725 72.6328 35.4531H60.6328ZM60.4777 37.1959C60.3849 37.7612 60.2659 38.2067 60.1425 38.5523L71.4434 42.5883C71.8408 41.4756 72.1255 40.3195 72.3192 39.14L60.4777 37.1959ZM60.1425 38.5523C60.0164 38.9055 59.9297 39.028 59.9418 39.0105L69.8082 45.841C70.5234 44.8079 71.0487 43.6934 71.4434 42.5883L60.1425 38.5523ZM59.8909 39.0854C59.2851 39.9892 58.6885 40.6895 58.1185 41.2278L66.358 49.9519C67.6631 48.7193 68.8243 47.3103 69.8591 45.7662L59.8909 39.0854ZM58.1185 41.2278C57.4866 41.8246 56.9223 42.2307 56.4356 42.5032L62.2988 52.9733C63.7652 52.1522 65.115 51.1259 66.358 49.9519L58.1185 41.2278ZM56.4892 42.4736C55.899 42.7962 55.3923 42.9889 54.9649 43.0987L57.9492 54.7217C59.4488 54.3366 60.8822 53.7481 62.2452 53.003L56.4892 42.4736ZM54.8716 43.1234C54.4112 43.2496 54.0001 43.3008 53.625 43.3008V55.3008C55.1249 55.3008 56.6018 55.0916 58.0424 54.6969L54.8716 43.1234ZM53.625 43.3008C53.1658 43.3008 52.7845 43.23 52.4463 43.1114L48.4756 54.4354C50.1425 55.02 51.8706 55.3008 53.625 55.3008V43.3008ZM52.4031 43.0965C51.9595 42.9447 51.7448 42.8001 51.6594 42.7321L44.1843 52.1195C45.5052 53.1713 46.9832 53.9251 48.5188 54.4504L52.4031 43.0965ZM51.7579 42.8122C51.4835 42.5841 51.1189 42.1633 50.7779 41.3107L39.6362 45.7674C40.5972 48.17 42.0425 50.3404 44.0859 52.0394L51.7579 42.8122ZM50.784 41.326C50.4216 40.4129 50.2305 39.4342 50.2305 38.3438H38.2305C38.2305 40.8992 38.6904 43.384 39.6301 45.7521L50.784 41.326ZM50.2305 38.3438C50.2305 36.4284 50.7446 35.4651 51.3188 34.8537L42.5718 26.6385C39.5263 29.8812 38.2305 33.983 38.2305 38.3438H50.2305ZM51.3236 34.8486C52.4958 33.5976 53.5482 32.8282 54.4501 32.3737L49.0499 21.6575C46.6445 22.8697 44.4937 24.5873 42.567 26.6436L51.3236 34.8486ZM54.4836 32.3567C55.3541 31.9112 56.1152 31.7461 56.8281 31.7461V19.7461C54.0775 19.7461 51.4532 20.4274 49.0164 21.6745L54.4836 32.3567ZM56.8281 31.7461C57.3249 31.7461 57.7599 31.8089 58.1519 31.9178L61.3637 20.3556C59.8808 19.9437 58.3626 19.7461 56.8281 19.7461V31.7461ZM58.2269 31.9381C58.6144 32.0404 59.1486 32.242 59.8386 32.6176L65.5755 22.0777C64.2082 21.3335 62.7762 20.7278 61.2887 20.3353L58.2269 31.9381ZM55.6994 29.3192C55.7109 29.2676 55.7355 29.1963 55.775 29.1249C55.8136 29.055 55.8428 29.0274 55.83 29.0405L64.3887 37.4517C65.8799 35.9343 66.9329 34.0714 67.41 31.9386L55.6994 29.3192ZM55.793 29.0785C55.6396 29.2374 56.3809 28.3789 57.9609 28.3789V40.3789C60.9472 40.3789 63.1208 38.7652 64.4258 37.4137L55.793 29.0785ZM57.9609 28.3789C58.7072 28.3789 59.5697 28.5919 60.3516 29.1132L53.6952 39.0978C55.0241 39.9837 56.5116 40.3789 57.9609 40.3789V28.3789ZM60.7716 29.4203C62.4513 30.764 62.4375 32.4554 62.4375 32.4648H50.4375C50.4375 34.0368 50.8143 36.8219 53.2753 38.7907L60.7716 29.4203ZM62.4375 32.4648C62.4375 33.2465 62.1643 33.7929 62.0157 34.0157L52.0311 27.3593C51.1014 28.754 50.4375 30.4852 50.4375 32.4648H62.4375ZM61.9645 34.0913C61.5156 34.7429 61.0403 34.9135 61.1171 34.8832L56.7188 23.7183C55.0769 24.3651 53.3385 25.4602 52.0824 27.2837L61.9645 34.0913ZM58.918 23.3008C57.2796 23.3008 55.6852 23.6151 54.1742 24.2244L58.6618 35.3537C58.7654 35.3119 58.8376 35.3008 58.918 35.3008V23.3008ZM54.1426 24.2372C52.7711 24.7993 51.4748 25.5793 50.3312 26.619L58.4032 35.4982C58.4054 35.4963 58.4763 35.4298 58.6933 35.3409L54.1426 24.2372ZM50.3873 26.5685C49.3071 27.526 48.398 28.6553 47.701 29.946L58.2599 35.6478C58.266 35.6364 58.2814 35.6068 58.347 35.5487L50.3873 26.5685ZM47.6804 29.9846C46.9334 31.3923 46.4727 32.9952 46.4727 34.7305H58.4727C58.4727 34.9314 58.4457 35.1194 58.4028 35.2829C58.3606 35.4436 58.3101 35.5535 58.2806 35.6092L47.6804 29.9846ZM46.4727 34.7305C46.4727 38.215 48.2761 40.9851 50.9197 42.6758L57.385 32.5664C57.4758 32.6245 57.7961 32.8577 58.0803 33.3468C58.378 33.8591 58.4727 34.3716 58.4727 34.7305H46.4727ZM50.927 42.6805C52.6324 43.7676 54.7308 44.6172 57.1211 44.6172V32.6172C57.3703 32.6172 57.5331 32.6626 57.5844 32.6798C57.6278 32.6944 57.5597 32.6778 57.3777 32.5617L50.927 42.6805ZM57.1211 44.6172C59.5042 44.6172 61.6999 43.7818 63.4799 42.2606L55.6841 33.1378C55.819 33.0225 56.0368 32.8764 56.3327 32.7661C56.6303 32.6551 56.9078 32.6172 57.1211 32.6172V44.6172ZM63.5272 42.2198C65.0329 40.9057 66.1115 39.2855 66.809 37.5056L55.6363 33.1272C55.6193 33.1705 55.6056 33.1987 55.5974 33.2145C55.5892 33.2301 55.5854 33.2351 55.5874 33.2322C55.5895 33.2291 55.5954 33.221 55.6052 33.21C55.6151 33.1989 55.626 33.1881 55.6368 33.1787L63.5272 42.2198ZM66.8189 37.4803C67.4363 35.8836 67.7891 34.1879 67.7891 32.4258H55.7891C55.7891 32.5647 55.7643 32.7961 55.6264 33.1525L66.8189 37.4803ZM67.7891 32.4258C67.7891 31.2961 67.6535 30.1344 67.3238 28.9806L55.7855 32.2772C55.7684 32.2172 55.7891 32.2533 55.7891 32.4258H67.7891ZM71.3906 15.8633L69.0706 10.33L66.1293 11.5633L65.5062 14.6912L71.3906 15.8633ZM81.3125 11.7031L87.3002 11.3195L86.7616 2.9123L78.9924 6.16983L81.3125 11.7031ZM82.7578 34.2617L76.7701 34.6453L77.3728 44.0533L85.6406 39.5238L82.7578 34.2617ZM90.9219 29.7891L91.8106 23.8552L89.8117 23.5559L88.0391 24.527L90.9219 29.7891ZM99.3984 31.0586L103.049 35.82L114.267 27.2185L100.287 25.1248L99.3984 31.0586ZM88.3438 39.5352L84.6928 34.7738L78.4318 39.5746L84.7308 44.3254L88.3438 39.5352ZM98.7539 47.3867L104.743 47.0283L104.578 44.264L102.367 42.5964L98.7539 47.3867ZM99.2227 55.2188L95.7206 60.0907L105.966 67.4552L105.212 54.8603L99.2227 55.2188ZM83.8711 44.1836L87.3732 39.3117L77.2446 32.0309L77.8789 44.4887L83.8711 44.1836ZM84.3594 53.7734L84.4728 59.7724L90.6666 59.6553L90.3516 53.4683L84.3594 53.7734ZM75.0625 53.9492L69.0705 54.2597L69.371 60.0579L75.1759 59.9481L75.0625 53.9492ZM73.3047 20.0234L79.2966 19.713L78.9287 12.6116L71.9905 14.1691L73.3047 20.0234ZM70.4336 20.668L64.5492 19.4959L62.7472 28.5428L71.7478 26.5223L70.4336 20.668ZM73.7107 21.3966L83.6326 17.2364L78.9924 6.16983L69.0706 10.33L73.7107 21.3966ZM75.3248 12.0868L76.7701 34.6453L88.7455 33.8781L87.3002 11.3195L75.3248 12.0868ZM85.6406 39.5238L93.8047 35.0511L88.0391 24.527L79.875 28.9996L85.6406 39.5238ZM90.0332 35.7229L98.5097 36.9924L100.287 25.1248L91.8106 23.8552L90.0332 35.7229ZM95.7475 26.2972L84.6928 34.7738L91.9947 44.2965L103.049 35.82L95.7475 26.2972ZM84.7308 44.3254L95.141 52.177L102.367 42.5964L91.9567 34.7449L84.7308 44.3254ZM92.7646 47.7452L93.2334 55.5772L105.212 54.8603L104.743 47.0283L92.7646 47.7452ZM102.725 50.3468L87.3732 39.3117L80.369 49.0555L95.7206 60.0907L102.725 50.3468ZM77.8789 44.4887L78.3671 54.0785L90.3516 53.4683L89.8633 43.8785L77.8789 44.4887ZM84.2459 47.7745L74.9491 47.9503L75.1759 59.9481L84.4728 59.7724L84.2459 47.7745ZM81.0545 53.6388L79.2966 19.713L67.3127 20.3339L69.0705 54.2597L81.0545 53.6388ZM71.9905 14.1691L69.1194 14.8137L71.7478 26.5223L74.6189 25.8777L71.9905 14.1691ZM76.318 21.8401L77.275 17.0354L65.5062 14.6912L64.5492 19.4959L76.318 21.8401ZM120.992 37.6992L125.613 33.8722L120.059 27.1651L115.77 34.7446L120.992 37.6992ZM125.699 43.3828L131.371 45.3408L132.471 42.1531L130.32 39.5558L125.699 43.3828ZM123.004 46.3906L119.762 41.342L119.751 41.3489L119.741 41.3557L123.004 46.3906ZM117.965 48.5391L116.419 42.7417L116.396 42.7478L116.373 42.7541L117.965 48.5391ZM107.535 48.6562L105.605 54.3372L105.613 54.3401L105.621 54.3429L107.535 48.6562ZM104.43 46.5859L109.141 42.8702L109.133 42.861L109.126 42.8519L104.43 46.5859ZM103.59 34.7305L97.975 32.6153L97.971 32.6259L97.9671 32.6365L103.59 34.7305ZM105.855 30.7461L101.734 26.3857L101.728 26.3918L101.721 26.3979L105.855 30.7461ZM108.941 28.5L106.111 23.2093L106.099 23.2162L106.086 23.2232L108.941 28.5ZM112.418 27.1523L110.963 21.3315L112.418 27.1523ZM120.816 27.5039L118.786 33.1499L118.816 33.1605L118.845 33.1709L120.816 27.5039ZM124.742 29.7891L129.341 33.6433L133.071 29.1927L128.744 25.319L124.742 29.7891ZM114.02 42.582L109.421 38.7278L101.162 48.582H114.02V42.582ZM116.715 41.9961L119.229 47.4439L119.247 47.4354L119.266 47.4269L116.715 41.9961ZM119.078 40.2969L123.359 44.5011L123.377 44.4822L123.396 44.4631L119.078 40.2969ZM115.582 33.1484L120.249 36.919L124.898 31.1654L118.309 27.8039L115.582 33.1484ZM111.578 33.0898L109.202 27.5806L109.182 27.5892L109.162 27.598L111.578 33.0898ZM110.191 34.1055L114.934 37.7809L115.023 37.6657L115.107 37.5462L110.191 34.1055ZM109.117 38.8516L103.256 40.1337L109.117 38.8516ZM109.586 40.5703L103.845 42.3132L107.135 53.1517L114.253 44.3409L109.586 40.5703ZM116.371 41.5262L121.078 47.2098L130.32 39.5558L125.613 33.8722L116.371 41.5262ZM120.028 41.4248C120.139 41.1031 120.276 40.9486 120.274 40.9509C120.271 40.9543 120.235 40.9936 120.15 41.0636C120.065 41.1337 119.939 41.2279 119.762 41.342L126.246 51.4392C128.297 50.1218 130.392 48.1761 131.371 45.3408L120.028 41.4248ZM119.741 41.3557C118.959 41.8622 117.884 42.3508 116.419 42.7417L119.511 54.3365C121.952 53.6856 124.236 52.742 126.267 51.4255L119.741 41.3557ZM116.373 42.7541C114.932 43.1506 113.527 43.3398 112.145 43.3398V55.3398C114.642 55.3398 117.117 54.9953 119.557 54.324L116.373 42.7541ZM112.145 43.3398C110.949 43.3398 110.076 43.1806 109.449 42.9696L105.621 54.3429C107.703 55.0433 109.903 55.3398 112.145 55.3398V43.3398ZM109.466 42.9753C109.222 42.8925 109.11 42.8235 109.081 42.8046C109.059 42.7897 109.093 42.8094 109.141 42.8702L99.7187 50.3017C101.3 52.3063 103.392 53.5852 105.605 54.3372L109.466 42.9753ZM109.126 42.8519C108.88 42.542 108.535 41.9161 108.535 40.4922H96.5352C96.5352 44.0162 97.4535 47.4527 99.7332 50.32L109.126 42.8519ZM108.535 40.4922C108.535 39.2765 108.751 38.064 109.213 36.8245L97.9671 32.6365C97.0225 35.173 96.5352 37.8016 96.5352 40.4922H108.535ZM109.205 36.8456C109.486 36.0993 109.728 35.5938 109.909 35.2744C110.101 34.9366 110.15 34.9422 109.99 35.0943L101.721 26.3979C99.9255 28.1051 98.7827 30.4712 97.975 32.6153L109.205 36.8456ZM109.977 35.1065C110.562 34.5533 111.168 34.1172 111.797 33.7768L106.086 23.2232C104.501 24.0807 103.05 25.1421 101.734 26.3857L109.977 35.1065ZM111.771 33.7907C112.469 33.4176 113.167 33.1497 113.873 32.9732L110.963 21.3315C109.273 21.7539 107.654 22.3845 106.111 23.2093L111.771 33.7907ZM113.873 32.9732C114.584 32.7954 115.326 32.7031 116.109 32.7031V20.7031C114.367 20.7031 112.647 20.9103 110.963 21.3315L113.873 32.9732ZM116.109 32.7031C117.105 32.7031 117.984 32.8614 118.786 33.1499L122.847 21.858C120.68 21.0787 118.421 20.7031 116.109 20.7031V32.7031ZM118.845 33.1709C119.635 33.4455 120.243 33.8146 120.74 34.2592L128.744 25.319C127.001 23.7583 124.993 22.604 122.788 21.8369L118.845 33.1709ZM120.144 25.9349L109.421 38.7278L118.618 46.4362L129.341 33.6433L120.144 25.9349ZM114.02 48.582C115.821 48.582 117.579 48.2056 119.229 47.4439L114.2 36.5483C114.158 36.5678 114.119 36.582 114.02 36.582V48.582ZM119.266 47.4269C120.818 46.6979 122.182 45.6996 123.359 44.5011L114.797 36.0926C114.542 36.3525 114.331 36.487 114.164 36.5653L119.266 47.4269ZM123.396 44.4631C124.497 43.3218 125.43 42.0393 126.214 40.6538L115.77 34.7446C115.434 35.3383 115.091 35.7876 114.76 36.1307L123.396 44.4631ZM118.309 27.8039C116.894 27.0822 115.314 26.6602 113.629 26.6602V38.6602C113.465 38.6602 113.305 38.6394 113.16 38.6031C113.017 38.5672 112.914 38.5228 112.855 38.493L118.309 27.8039ZM113.629 26.6602C112.085 26.6602 110.594 26.9799 109.202 27.5806L113.955 38.5991C113.931 38.6094 113.884 38.6264 113.819 38.6401C113.754 38.6538 113.688 38.6602 113.629 38.6602V26.6602ZM109.162 27.598C107.966 28.124 106.416 29.0364 105.276 30.6647L115.107 37.5462C114.799 37.9855 114.484 38.256 114.288 38.3992C114.096 38.5403 113.976 38.5897 113.995 38.5817L109.162 27.598ZM105.449 30.43C103.874 32.4623 102.98 34.8868 102.98 37.543H114.98C114.98 37.5548 114.979 37.5825 114.973 37.6218C114.966 37.6614 114.956 37.7019 114.942 37.7397C114.913 37.8221 114.891 37.8368 114.934 37.7809L105.449 30.43ZM102.98 37.543C102.98 38.4006 103.066 39.2682 103.256 40.1337L114.979 37.5694C114.982 37.5845 114.982 37.5914 114.982 37.5884C114.982 37.5853 114.98 37.5707 114.98 37.543H102.98ZM103.256 40.1337C103.397 40.7808 103.607 41.5301 103.845 42.3132L115.327 38.8274C115.122 38.1522 115.019 37.7557 114.979 37.5694L103.256 40.1337ZM114.253 44.3409L120.249 36.919L110.915 29.3778L104.919 36.7997L114.253 44.3409ZM185.938 23.8516L189.222 28.873L192.813 26.524L191.751 22.366L185.938 23.8516ZM177.188 29.5742L171.62 31.8111L174.348 38.6006L180.472 34.5956L177.188 29.5742ZM168.984 29.0078L164.15 25.4546L168.984 29.0078ZM167.793 32.6602H161.793V32.8498L161.805 33.0391L167.793 32.6602ZM168.711 35.6289L163.51 38.6211L163.519 38.6366L163.528 38.6521L168.711 35.6289ZM171.621 37.1328L171.341 43.1263L171.481 43.1328H171.621V37.1328ZM177.871 32.9336L183.238 30.2503L177.85 19.4754L172.496 30.267L177.871 32.9336ZM179.492 34.3984L175.611 38.9744L179.492 34.3984ZM182.637 37.0156L178.84 41.6619L178.854 41.6732L178.868 41.6843L182.637 37.0156ZM185.02 38.9492L190.556 41.2612L192.276 37.1422L188.825 34.3108L185.02 38.9492ZM164.16 46.625L161.462 51.984L161.484 51.9953L161.507 52.0064L164.16 46.625ZM159.57 41.8398L154.266 44.6444L154.269 44.6507L154.273 44.657L159.57 41.8398ZM157.383 32.6602L163.369 32.2557L163.369 32.2473L157.383 32.6602ZM158.027 25.3945L163.838 26.8899L163.843 26.8699L163.848 26.8497L158.027 25.3945ZM160.215 20.6094L155.341 17.1094L155.335 17.1177L160.215 20.6094ZM170.977 15.707V9.70703H170.931L170.885 9.70773L170.977 15.707ZM175.977 16.3125L174.543 22.1388L174.565 22.1441L174.587 22.1493L175.977 16.3125ZM180.488 17.9727L177.704 23.2876L177.724 23.2981L177.744 23.3084L180.488 17.9727ZM184.004 20.5703L179.653 24.7014L179.679 24.7296L179.707 24.7575L184.004 20.5703ZM182.653 18.8301L173.903 24.5528L180.472 34.5956L189.222 28.873L182.653 18.8301ZM182.755 27.3373C181.643 24.5686 179.385 23.0597 177.371 22.3103C175.443 21.5932 173.316 21.3867 171.309 21.3867V33.3867C171.932 33.3867 172.399 33.4213 172.732 33.4673C173.072 33.5142 173.203 33.5631 173.186 33.5569C173.168 33.5504 172.914 33.4545 172.58 33.1678C172.219 32.8577 171.857 32.3996 171.62 31.8111L182.755 27.3373ZM171.309 21.3867C167.563 21.3867 165.227 23.9883 164.15 25.4546L173.819 32.561C173.977 32.3466 173.92 32.4857 173.594 32.7132C173.228 32.9681 172.436 33.3867 171.309 33.3867V21.3867ZM164.15 25.4546C162.591 27.576 161.793 30.041 161.793 32.6602H173.793C173.793 32.6158 173.796 32.5923 173.797 32.5859C173.798 32.5799 173.798 32.5833 173.795 32.5922C173.792 32.6011 173.789 32.6063 173.79 32.6055C173.791 32.6043 173.798 32.5895 173.819 32.561L164.15 25.4546ZM161.805 33.0391C161.932 35.0462 162.534 36.9239 163.51 38.6211L173.912 32.6367C173.794 32.4329 173.784 32.3314 173.781 32.2812L161.805 33.0391ZM163.528 38.6521C165.391 41.8459 168.57 42.9968 171.341 43.1263L171.901 31.1394C171.837 31.1363 172.139 31.1378 172.603 31.3777C173.124 31.6466 173.589 32.0842 173.894 32.6057L163.528 38.6521ZM171.621 43.1328C173.758 43.1328 175.751 42.5562 177.537 41.6838L172.268 30.9021C171.762 31.1495 171.568 31.1328 171.621 31.1328V43.1328ZM177.537 41.6838C180.315 40.326 182.09 37.9297 183.246 35.6002L172.496 30.267C172.257 30.7488 172.078 30.9805 172.008 31.06C171.946 31.1297 172.023 31.022 172.268 30.9021L177.537 41.6838ZM172.505 35.6169C172.88 36.3687 173.346 36.8815 173.387 36.9286C173.536 37.1003 173.673 37.2402 173.759 37.3264C173.938 37.5054 174.129 37.6813 174.293 37.8297C174.633 38.1374 175.082 38.5254 175.611 38.9744L183.373 29.8225C182.874 29.399 182.538 29.1068 182.338 28.9262C182.291 28.8837 182.259 28.8542 182.24 28.8361C182.219 28.8163 182.223 28.8197 182.244 28.8411C182.256 28.8526 182.278 28.8747 182.307 28.9058C182.335 28.9355 182.382 28.9859 182.44 29.0527C182.494 29.1142 182.59 29.2269 182.702 29.3783C182.76 29.4561 182.836 29.563 182.921 29.6943C183.002 29.8208 183.118 30.0101 183.238 30.2503L172.505 35.6169ZM175.611 38.9744C176.669 39.871 177.745 40.7668 178.84 41.6619L186.433 32.3694C185.393 31.5196 184.373 30.6707 183.373 29.8225L175.611 38.9744ZM178.868 41.6843C179.947 42.5552 180.725 43.1871 181.214 43.5877L188.825 34.3108C188.298 33.878 187.488 33.2209 186.405 32.3469L178.868 41.6843ZM179.483 36.6372C178.789 38.2997 178.005 39.2864 177.278 39.8851L184.909 49.1461C187.438 47.0625 189.271 44.3383 190.556 41.2612L179.483 36.6372ZM177.278 39.8851C176.209 40.7661 175.242 41.2469 174.373 41.4878L177.58 53.0512C180.279 52.3026 182.723 50.9474 184.909 49.1461L177.278 39.8851ZM174.373 41.4878C173.084 41.8455 171.852 42.0117 170.664 42.0117V54.0117C172.992 54.0117 175.302 53.6832 177.58 53.0512L174.373 41.4878ZM170.664 42.0117C168.961 42.0117 167.729 41.695 166.813 41.2436L161.507 52.0064C164.341 53.4039 167.445 54.0117 170.664 54.0117V42.0117ZM166.858 41.266C166.333 41.0012 165.615 40.4285 164.868 39.0227L154.273 44.657C155.921 47.7564 158.264 50.3738 161.462 51.984L166.858 41.266ZM164.875 39.0353C164.217 37.7923 163.599 35.657 163.369 32.2557L151.396 33.0646C151.687 37.3717 152.527 41.3561 154.266 44.6444L164.875 39.0353ZM163.369 32.2473C163.357 32.0847 163.344 31.6815 163.344 30.9414H151.344C151.344 31.7377 151.356 32.4804 151.397 33.073L163.369 32.2473ZM163.344 30.9414C163.344 29.4916 163.515 28.1466 163.838 26.8899L152.217 23.8991C151.629 26.1841 151.344 28.537 151.344 30.9414H163.344ZM163.848 26.8497C164.116 25.7768 164.538 24.8788 165.094 24.101L155.335 17.1177C153.861 19.1785 152.824 21.4706 152.206 23.9393L163.848 26.8497ZM165.088 24.1094C165.474 23.5718 166.088 23.0041 167.136 22.4798L161.77 11.7467C159.225 13.0193 157.013 14.7823 155.341 17.1094L165.088 24.1094ZM167.136 22.4798C167.94 22.0778 169.181 21.7352 171.068 21.7063L170.885 9.70773C167.668 9.75696 164.56 10.3519 161.77 11.7467L167.136 22.4798ZM170.977 21.707C172.187 21.707 173.372 21.8507 174.543 22.1388L177.41 10.4862C175.299 9.96697 173.151 9.70703 170.977 9.70703V21.707ZM174.587 22.1493C175.787 22.4351 176.817 22.8229 177.704 23.2876L183.272 12.6577C181.425 11.6901 179.447 10.9711 177.366 10.4757L174.587 22.1493ZM177.744 23.3084C178.562 23.729 179.178 24.2012 179.653 24.7014L188.355 16.4393C186.877 14.8822 185.149 13.6226 183.232 12.6369L177.744 23.3084ZM179.707 24.7575C179.905 24.9607 180.008 25.1105 180.06 25.1985C180.11 25.2824 180.121 25.3257 180.124 25.3372L191.751 22.366C191.149 20.0131 189.897 18.0204 188.301 16.3831L179.707 24.7575ZM214.055 29.457L217.33 34.4841L220.852 32.1894L219.898 28.0954L214.055 29.457ZM207.16 33.9492L201.567 36.1199L204.241 43.0123L210.436 38.9763L207.16 33.9492ZM205.793 31.7227L201.324 35.7261L201.368 35.7752L201.413 35.8232L205.793 31.7227ZM201.887 32.8164L196.38 30.4337L196.375 30.4462L201.887 32.8164ZM201.398 47.6992L202.09 53.6592L207.818 52.9943L207.381 47.2448L201.398 47.6992ZM191.809 48.8125L185.866 49.6395L186.674 55.4488L192.5 54.7725L191.809 48.8125ZM191.047 35.9023L197.037 36.2446L197.052 35.9812L197.044 35.7175L191.047 35.9023ZM190.695 24.4961L189.953 18.5422L184.53 19.2184L184.698 24.6809L190.695 24.4961ZM198.371 23.5391L202.912 19.6173L200.814 17.188L197.629 17.5852L198.371 23.5391ZM199.484 24.8281L194.943 28.7498L197.594 31.8191L201.43 30.5038L199.484 24.8281ZM202.004 24.0273L200.368 18.2546L200.355 18.2582L200.343 18.2619L202.004 24.0273ZM209.562 24.1836L206.476 29.3286L206.557 29.3772L206.639 29.4233L209.562 24.1836ZM212.492 26.332L208.174 30.4982L208.193 30.5177L208.212 30.537L212.492 26.332ZM210.779 24.43L203.885 28.9221L210.436 38.9763L217.33 34.4841L210.779 24.43ZM212.754 31.7786C212.17 30.2742 211.328 28.8554 210.173 27.6221L201.413 35.8232C201.414 35.8239 201.417 35.8276 201.423 35.8354C201.429 35.8433 201.439 35.8569 201.451 35.8779C201.477 35.9193 201.518 35.9957 201.567 36.1199L212.754 31.7786ZM210.262 27.7192C209.035 26.3497 206.957 24.7852 204.055 24.7852V36.7852C202.35 36.7852 201.431 35.8456 201.324 35.7261L210.262 27.7192ZM204.055 24.7852C199.382 24.7852 197.182 28.5806 196.38 30.4337L207.393 35.1991C207.505 34.9401 207.429 35.2422 206.97 35.6714C206.402 36.2044 205.381 36.7852 204.055 36.7852V24.7852ZM196.375 30.4462C195.284 32.9838 195.047 36.3709 195.047 39.6523H207.047C207.047 38.1772 207.111 37.0533 207.212 36.2336C207.32 35.3557 207.439 35.0941 207.399 35.1866L196.375 30.4462ZM195.047 39.6523C195.047 42.1252 195.174 44.9659 195.416 48.1536L207.381 47.2448C207.155 44.2606 207.047 41.7368 207.047 39.6523H195.047ZM200.707 41.7392L191.117 42.8525L192.5 54.7725L202.09 53.6592L200.707 41.7392ZM197.751 47.9855C197.219 44.1622 196.969 40.8595 196.969 38.0508H184.969C184.969 41.5442 185.278 45.4159 185.866 49.6395L197.751 47.9855ZM196.969 38.0508C196.969 37.6981 196.987 37.113 197.037 36.2446L185.057 35.56C185.002 36.5146 184.969 37.3618 184.969 38.0508H196.969ZM197.044 35.7175L196.692 24.3113L184.698 24.6809L185.05 36.0872L197.044 35.7175ZM191.438 30.45L199.113 29.493L197.629 17.5852L189.953 18.5422L191.438 30.45ZM193.83 27.4608L194.943 28.7498L204.025 20.9064L202.912 19.6173L193.83 27.4608ZM201.43 30.5038C202.266 30.2173 203.01 29.9817 203.665 29.7928L200.343 18.2619C199.462 18.5157 198.526 18.814 197.538 19.1524L201.43 30.5038ZM203.64 29.8001C204.283 29.6177 204.843 29.4846 205.324 29.392L203.058 17.608C202.186 17.7758 201.287 17.9943 200.368 18.2546L203.64 29.8001ZM205.324 29.392C205.658 29.3279 205.935 29.3047 206.164 29.3047V17.3047C205.117 17.3047 204.079 17.4117 203.058 17.608L205.324 29.392ZM206.164 29.3047C206.353 29.3047 206.449 29.3258 206.478 29.3333C206.503 29.3396 206.494 29.3398 206.476 29.3286L212.649 19.0386C210.622 17.8223 208.394 17.3047 206.164 17.3047V29.3047ZM206.639 29.4233C207.539 29.9252 207.989 30.3055 208.174 30.4982L216.81 22.1658C215.564 20.8742 214.06 19.8222 212.486 18.9439L206.639 29.4233ZM208.212 30.537C208.088 30.4109 208.05 30.3271 208.063 30.3532C208.079 30.3856 208.143 30.5252 208.211 30.8186L219.898 28.0954C219.414 26.0192 218.486 23.871 216.772 22.1271L208.212 30.537ZM239.008 37.6992L243.629 33.8722L238.074 27.1651L233.786 34.7446L239.008 37.6992ZM243.715 43.3828L249.386 45.3408L250.487 42.1531L248.336 39.5558L243.715 43.3828ZM241.02 46.3906L237.777 41.342L237.767 41.3489L237.756 41.3557L241.02 46.3906ZM235.98 48.5391L234.434 42.7417L234.412 42.7478L234.389 42.7541L235.98 48.5391ZM225.551 48.6562L223.62 54.3372L223.629 54.3401L223.637 54.3429L225.551 48.6562ZM222.445 46.5859L227.156 42.8702L227.149 42.861L227.142 42.8519L222.445 46.5859ZM221.605 34.7305L215.991 32.6153L215.987 32.6259L215.983 32.6365L221.605 34.7305ZM223.871 30.7461L219.75 26.3857L219.743 26.3918L219.737 26.3979L223.871 30.7461ZM226.957 28.5L224.127 23.2093L224.114 23.2162L224.101 23.2232L226.957 28.5ZM230.434 27.1523L228.978 21.3315L230.434 27.1523ZM238.832 27.5039L236.801 33.1499L236.831 33.1605L236.861 33.1709L238.832 27.5039ZM242.758 29.7891L247.356 33.6433L251.087 29.1927L246.76 25.319L242.758 29.7891ZM232.035 42.582L227.437 38.7278L219.177 48.582H232.035V42.582ZM234.73 41.9961L237.245 47.4439L237.263 47.4354L237.281 47.4269L234.73 41.9961ZM237.094 40.2969L241.374 44.5011L241.393 44.4822L241.411 44.4631L237.094 40.2969ZM233.598 33.1484L238.265 36.919L242.913 31.1654L236.324 27.8039L233.598 33.1484ZM229.594 33.0898L227.217 27.5806L227.197 27.5892L227.177 27.598L229.594 33.0898ZM228.207 34.1055L232.95 37.7809L233.039 37.6657L233.122 37.5462L228.207 34.1055ZM227.133 38.8516L221.271 40.1337L227.133 38.8516ZM227.602 40.5703L221.86 42.3132L225.151 53.1517L232.269 44.3409L227.602 40.5703ZM234.387 41.5262L239.094 47.2098L248.336 39.5558L243.629 33.8722L234.387 41.5262ZM238.043 41.4248C238.154 41.1031 238.292 40.9486 238.289 40.9509C238.286 40.9543 238.25 40.9936 238.166 41.0636C238.081 41.1337 237.955 41.2279 237.777 41.342L244.262 51.4392C246.313 50.1218 248.408 48.1761 249.386 45.3408L238.043 41.4248ZM237.756 41.3557C236.975 41.8622 235.9 42.3508 234.434 42.7417L237.526 54.3365C239.967 53.6856 242.252 52.742 244.283 51.4255L237.756 41.3557ZM234.389 42.7541C232.948 43.1506 231.543 43.3398 230.16 43.3398V55.3398C232.658 55.3398 235.133 54.9953 237.572 54.324L234.389 42.7541ZM230.16 43.3398C228.964 43.3398 228.091 43.1806 227.465 42.9696L223.637 54.3429C225.718 55.0433 227.919 55.3398 230.16 55.3398V43.3398ZM227.481 42.9753C227.238 42.8925 227.125 42.8235 227.097 42.8046C227.075 42.7897 227.108 42.8094 227.156 42.8702L217.734 50.3017C219.315 52.3063 221.407 53.5852 223.62 54.3372L227.481 42.9753ZM227.142 42.8519C226.895 42.542 226.551 41.9161 226.551 40.4922H214.551C214.551 44.0162 215.469 47.4527 217.749 50.32L227.142 42.8519ZM226.551 40.4922C226.551 39.2765 226.767 38.064 227.228 36.8245L215.983 32.6365C215.038 35.173 214.551 37.8016 214.551 40.4922H226.551ZM227.22 36.8456C227.501 36.0993 227.743 35.5938 227.925 35.2744C228.117 34.9366 228.165 34.9422 228.005 35.0943L219.737 26.3979C217.941 28.1051 216.798 30.4712 215.991 32.6153L227.22 36.8456ZM227.993 35.1065C228.578 34.5533 229.184 34.1172 229.813 33.7768L224.101 23.2232C222.517 24.0807 221.065 25.1421 219.75 26.3857L227.993 35.1065ZM229.787 33.7907C230.484 33.4176 231.183 33.1497 231.889 32.9732L228.978 21.3315C227.289 21.7539 225.669 22.3845 224.127 23.2093L229.787 33.7907ZM231.889 32.9732C232.6 32.7954 233.341 32.7031 234.125 32.7031V20.7031C232.383 20.7031 230.663 20.9103 228.978 21.3315L231.889 32.9732ZM234.125 32.7031C235.12 32.7031 236 32.8614 236.801 33.1499L240.863 21.858C238.696 21.0787 236.437 20.7031 234.125 20.7031V32.7031ZM236.861 33.1709C237.65 33.4455 238.259 33.8146 238.756 34.2592L246.76 25.319C245.017 23.7583 243.008 22.604 240.803 21.8369L236.861 33.1709ZM238.159 25.9349L227.437 38.7278L236.634 46.4362L247.356 33.6433L238.159 25.9349ZM232.035 48.582C233.836 48.582 235.594 48.2056 237.245 47.4439L232.216 36.5483C232.174 36.5678 232.135 36.582 232.035 36.582V48.582ZM237.281 47.4269C238.833 46.6979 240.197 45.6996 241.374 44.5011L232.813 36.0926C232.558 36.3525 232.346 36.487 232.18 36.5653L237.281 47.4269ZM241.411 44.4631C242.513 43.3218 243.446 42.0393 244.23 40.6538L233.786 34.7446C233.45 35.3383 233.107 35.7876 232.776 36.1307L241.411 44.4631ZM236.324 27.8039C234.91 27.0822 233.33 26.6602 231.645 26.6602V38.6602C231.481 38.6602 231.321 38.6394 231.176 38.6031C231.032 38.5672 230.929 38.5228 230.871 38.493L236.324 27.8039ZM231.645 26.6602C230.1 26.6602 228.61 26.9799 227.217 27.5806L231.97 38.5991C231.946 38.6094 231.9 38.6264 231.835 38.6401C231.769 38.6538 231.704 38.6602 231.645 38.6602V26.6602ZM227.177 27.598C225.982 28.124 224.431 29.0364 223.292 30.6647L233.122 37.5462C232.815 37.9855 232.5 38.256 232.304 38.3992C232.111 38.5403 231.992 38.5897 232.01 38.5817L227.177 27.598ZM223.465 30.43C221.89 32.4623 220.996 34.8868 220.996 37.543H232.996C232.996 37.5548 232.995 37.5825 232.988 37.6218C232.982 37.6614 232.971 37.7019 232.958 37.7397C232.929 37.8221 232.906 37.8368 232.95 37.7809L223.465 30.43ZM220.996 37.543C220.996 38.4006 221.082 39.2682 221.271 40.1337L232.994 37.5694C232.998 37.5845 232.998 37.5914 232.998 37.5884C232.997 37.5853 232.996 37.5707 232.996 37.543H220.996ZM221.271 40.1337C221.413 40.7808 221.623 41.5301 221.86 42.3132L233.343 38.8274C233.138 38.1522 233.035 37.7557 232.994 37.5694L221.271 40.1337ZM232.269 44.3409L238.265 36.919L228.93 29.3778L222.934 36.7997L232.269 44.3409ZM270.289 42.4258L275.906 40.3162L270.751 26.5901L264.805 39.9925L270.289 42.4258ZM266.598 50.7461L266.7 56.7452L270.529 56.6796L272.082 53.1793L266.598 50.7461ZM257.477 50.9023L251.891 53.0942L253.413 56.9728L257.579 56.9015L257.477 50.9023ZM246.93 24.0273L247.192 18.0331L237.973 17.6293L241.344 26.2192L246.93 24.0273ZM257.633 24.4961L263.247 22.3786L261.85 18.675L257.895 18.5018L257.633 24.4961ZM262.281 36.8203L256.667 38.9378L262.335 53.9634L267.908 38.9028L262.281 36.8203ZM265.035 29.3789L270.662 31.4613L271.458 29.3114L270.617 27.1787L265.035 29.3789ZM262.926 24.0273L263.188 18.0331L253.955 17.6294L257.344 26.2276L262.926 24.0273ZM273.648 24.4961L279.265 22.3864L277.871 18.675L273.91 18.5018L273.648 24.4961ZM278.277 36.8203L272.66 38.93L278.189 53.6494L283.872 38.9888L278.277 36.8203ZM282.926 24.8281L283.502 18.8558L278.975 18.4192L277.331 22.6596L282.926 24.8281ZM292.848 25.7852L298.426 27.9958L301.365 20.5789L293.424 19.8129L292.848 25.7852ZM282.77 51.2148L282.568 57.2115L286.791 57.3534L288.347 53.4254L282.77 51.2148ZM273.473 50.9023L267.856 53.0119L269.265 56.7643L273.271 56.899L273.473 50.9023ZM264.805 39.9925L261.113 48.3128L272.082 53.1793L275.774 44.859L264.805 39.9925ZM266.495 44.747L257.374 44.9032L257.579 56.9015L266.7 56.7452L266.495 44.747ZM263.062 48.7104L252.515 21.8354L241.344 26.2192L251.891 53.0942L263.062 48.7104ZM246.667 30.0216L257.37 30.4903L257.895 18.5018L247.192 18.0331L246.667 30.0216ZM252.019 26.6136L256.667 38.9378L267.895 34.7029L263.247 22.3786L252.019 26.6136ZM267.908 38.9028L270.662 31.4613L259.408 27.2965L256.654 34.7379L267.908 38.9028ZM270.617 27.1787L268.508 21.8271L257.344 26.2276L259.453 31.5791L270.617 27.1787ZM262.664 30.0216L273.386 30.4904L273.91 18.5018L263.188 18.0331L262.664 30.0216ZM268.032 26.6058L272.66 38.93L283.894 34.7106L279.265 22.3864L268.032 26.6058ZM283.872 38.9888L288.52 26.9966L277.331 22.6596L272.683 34.6518L283.872 38.9888ZM282.35 30.8004L292.272 31.7574L293.424 19.8129L283.502 18.8558L282.35 30.8004ZM287.27 23.5746L277.192 49.0042L288.347 53.4254L298.426 27.9958L287.27 23.5746ZM282.971 45.2182L273.674 44.9057L273.271 56.899L282.568 57.2115L282.971 45.2182ZM279.09 48.7928L275.906 40.3162L264.672 44.5354L267.856 53.0119L279.09 48.7928Z" fill="#386ABB" mask="url(#path-1-outside-1_6_39)"/>
</svg>
