<svg
   version="1.1"
   width="1080"
   height="1080"
   viewBox="30.68 -29.21 1080 1080"
   xml:space="preserve"
   id="svg19"
   sodipodi:docname="logo.svg"
   inkscape:version="1.3.2 (091e20e, 2023-11-25, custom)"
   xmlns:inkscape="http://www.inkscape.org/namespaces/inkscape"
   xmlns:sodipodi="http://sodipodi.sourceforge.net/DTD/sodipodi-0.dtd"
   xmlns="http://www.w3.org/2000/svg"
   xmlns:svg="http://www.w3.org/2000/svg"><sodipodi:namedview
   id="namedview19"
   pagecolor="#ffffff"
   bordercolor="#000000"
   borderopacity="0.25"
   inkscape:showpageshadow="2"
   inkscape:pageopacity="0.0"
   inkscape:pagecheckerboard="0"
   inkscape:deskcolor="#d1d1d1"
   inkscape:zoom="0.70710678"
   inkscape:cx="349.31075"
   inkscape:cy="521.1377"
   inkscape:window-width="2560"
   inkscape:window-height="1369"
   inkscape:window-x="1912"
   inkscape:window-y="-8"
   inkscape:window-maximized="1"
   inkscape:current-layer="svg19" />
<desc
   id="desc1">Created with Fabric.js 5.2.4</desc>
<defs
   id="defs1">
</defs>


<g
   transform="matrix(0.8,0,0,0.8,421.16178,375.31822)"
   id="g1">
<path
   style="display:inline;opacity:1;fill:#69da7e;fill-rule:nonzero;stroke:none;stroke-width:1;stroke-linecap:butt;stroke-linejoin:miter;stroke-miterlimit:4;stroke-dasharray:none;stroke-dashoffset:0"
   vector-effect="non-scaling-stroke"
   transform="translate(-925.82,-800.92)"
   d="m 873,1236 c -4.783,-3.58 -10.949,-5.31 -16,-8.75 -13.536,-9.2 -26.573,-20.03 -39,-30.68 -36.48,-31.25 -69.644,-67.02 -104,-100.58 -16.516,-16.14 -32.673,-32.66 -49,-48.99 -7.488,-7.49 -14.362,-16.91 -23,-23 l 6,8 c -20.359,-20.35 -42.07,-40.272 -63.714,-59.255 -5.68,-4.981 -10.968,-10.382 -16.285,-15.745 -1.864,-1.879 -5.668,-4.688 -5.54,-7.675 0.143,-3.3 6.403,-7.194 8.535,-9.329 7.893,-7.902 16.298,-15.795 23.834,-23.999 C 627.321,880.626 663.027,847.973 697,814 L 877,634 c 30.635,-30.635 60.688,-62.02 92,-91.961 31.01,-29.654 61.64,-59.683 92,-90.039 9.54,-9.537 18.9,-19.139 28.09,-29 4.2,-4.505 9.28,-8.356 11.91,-14 14.95,11.302 27.75,26.748 41,40 22.84,22.84 46.18,45.179 69,68 9.18,9.18 18.82,17.819 28,27 4.85,4.855 9.85,11.612 16,14.836 8.36,4.383 19.94,2.468 29,3.334 21.45,2.049 44.39,3.238 65,9.83 -4.35,-6.179 -10.3,-10.926 -15.58,-16.286 C 1319.84,541.925 1305.7,528.701 1292,515 c -32.19,-32.189 -64.82,-63.823 -97,-96 -18.19,-18.19 -37.58,-42.227 -63,-50.162 -9.91,-3.093 -20.71,-3.253 -31,-2.799 -23.37,1.033 -42.63,14.787 -58.3,31.077 -7.12,7.406 -13.6,16.02 -21.7,22.429 -20.99,16.592 -37.881,37.901 -57.001,56.436 -3.769,3.654 -8.219,6.395 -11.999,10.038 -45.094,43.452 -87.506,89.325 -132.754,132.532 C 742.142,692.177 667.447,768.553 592,844 c -15.649,15.649 -31.046,31.637 -47.001,46.961 -11.827,11.359 -26.238,22.327 -34.19,37.039 -3.419,6.324 -5.348,14.021 -6.921,21 -3.942,17.488 1.709,38.112 12.63,52 7.144,9.09 16.267,16.47 24.157,24.83 18.999,20.14 39.483,38.99 59.364,58.26 28.926,28.03 57.471,56.42 85.961,84.91 14.689,14.69 29.602,29.24 45,43.17 4.931,4.46 10.097,12.64 16.286,15.23 3.456,1.44 8.05,0.44 11.714,0.69 9.021,0.62 17.962,0.55 27,0.95 9.765,0.43 19.146,3.5 29,3.92 19.286,0.81 39.097,-1.28 58,3.04 z"
   stroke-linecap="round"
   id="path1" />
</g>
<g
   transform="matrix(0.8,0,0,0.8,445.69178,389.62822)"
   id="g2">
<path
   style="display:inline;opacity:1;fill:#104648;fill-rule:nonzero;stroke:none;stroke-width:1;stroke-linecap:butt;stroke-linejoin:miter;stroke-miterlimit:4;stroke-dasharray:none;stroke-dashoffset:0"
   vector-effect="non-scaling-stroke"
   transform="translate(-956.91,-819.16)"
   d="m 1101,409 c -3.67,5.206 -8.57,9.289 -12.83,14 -10,11.05 -20.63,21.46 -31.17,32 -30.02,30.018 -60.823,59.186 -91,89.004 C 876.755,632.188 788.677,721.323 700,810 c -25.009,25.009 -50.15,49.847 -75.004,75 -9.98,10.101 -20.565,19.551 -30.166,30.003 -7.554,8.224 -15.953,16.047 -23.834,23.996 -2.367,2.388 -8.948,6.657 -9.164,10.326 -0.18,3.039 3.28,5.746 5.173,7.675 5.052,5.149 10.154,10.236 15.571,15 21.945,19.301 41.5,43.15 65.424,60 -3.256,-7.02 -9.715,-12.8 -14.373,-19 -11.337,-15.086 -22.69,-31.861 -25.326,-51 -2.266,-16.455 8.79,-32.938 19.703,-44 18.063,-18.311 36.17,-36.553 54.996,-54.089 7.528,-7.013 14.568,-14.973 23,-20.911 -15.806,46.814 -4.642,98.867 24.478,138 19.667,26.43 46.552,47.76 70.522,70.09 20.828,19.4 41.628,39.05 62,58.92 19.51,19.04 36.736,38.83 52.573,60.99 12.143,16.99 22.468,36.15 40.427,47.9 16.079,10.51 34.555,11.78 53,9.38 32.86,-4.28 64.41,-20.78 82.56,-49.28 12.04,-18.91 14.56,-41.63 19.44,-63 -4.82,3.65 -7.1,12.9 -10.9,18 -9.84,13.22 -20.89,25.73 -35.1,34.39 -9.08,5.52 -18.63,9.9 -29,12.26 -10.89,2.48 -21.8,4.03 -33,3.26 -30.95,-2.13 -55.635,-18.62 -78,-38.74 -17.114,-15.4 -32.27269,-31.8304 -46.74569,-49.7804 49.03,16.34 99.43069,22.4104 150.74569,24.6104 -3.08,-6.73 -9.05,-12.48 -13.95,-18 -6.43,-7.25 -12.57,-14.75 -19,-22 -3.77,-4.25 -7.821,-11.08 -13.139,-13.44 -8.203,-3.63 -19.144,-4.08 -27.911,-6.06 -15.811,-3.58 -31.765,-7.99 -47,-13.55 C 864.12,1030.91 821.876,1008.7 786,978.589 764.461,960.51 743.797,937.357 733.015,911 717.269,872.509 722.643,831.216 746.029,797 759.294,777.59 777.466,761.534 794,745 858.678,680.322 924.241,616.551 989,552 c 26.57,-26.481 57.91,-47.657 90,-66.799 8.13,-4.851 16.53,-9.224 25,-13.448 3.52,-1.755 7.96,-4.718 12,-4.84 4.12,-0.125 7.99,3.923 11,6.298 8.66,6.825 16.94,14.253 25,21.764 20.02,18.656 40.22,37.151 60,56.064 5.94,5.679 12.03,11.329 17.83,17.131 4.01,4.005 7.35,8.536 12.17,11.682 4.63,3.02 8.97,1.373 14,0.587 6.26,-0.977 12.7,-1.397 19,-2.153 25.67,-3.081 51.19,-5.323 77,-3.286 -4.58,-6.93 -18.43,-7.077 -26,-8.13 -14.05,-1.954 -28.84,-4.211 -43,-4.831 -8.32,-0.364 -19.4,0.785 -27,-3.203 -11.12,-5.834 -19.61,-19.27 -29,-27.55 -31.42,-27.717 -60.37,-58.655 -90,-88.286 -7.33,-7.332 -14.62,-14.707 -22,-21.996 -4.2,-4.148 -8.73,-9.352 -14,-12.004 z"
   stroke-linecap="round"
   id="path2"
   sodipodi:nodetypes="ccccscccccccccccccccccccccccccccccccccccsccccccccccccccccccc" />
</g>
<g
   transform="matrix(0.8,0,0,0.8,454.77178,346.75822)"
   id="g3">
<path
   style="display:inline;opacity:1;fill:#69da7e;fill-rule:nonzero;stroke:none;stroke-width:1;stroke-linecap:butt;stroke-linejoin:miter;stroke-miterlimit:4;stroke-dasharray:none;stroke-dashoffset:0"
   vector-effect="non-scaling-stroke"
   d="M 726.29476,886.57545 C 741.10376,958.32245 810.306,1004.94 873,1032.86 c 16.673,7.43 33.386,14.51 51,19.43 18.915,5.28 39.229,12.86 59,13.71 -8.832,-12.55 -20.462,-23.78 -30.911,-35 -7.441,-7.99 -14.036,-17.06 -23.093,-23.38 -11.226,-7.833 -25.857,-10.8 -37.996,-17.008 -25.01,-12.79 -47.188,-29.008 -68.428,-47.277 -2.908,-2.501 -6.56,-3.991 -9.572,-6.424 -15.606,-12.606 -35.71,-31.918 -34.981,-53.911 0.356,-10.736 11.911,-20.895 18.982,-28 18.806,-18.897 38.143,-37.144 56.999,-56 39.996,-39.996 81.773,-78.256 122,-118.004 16.945,-16.743 34.16,-33.155 51,-49.996 13.87,-13.872 27.58,-28.625 43,-40.789 10.8,-8.52 22.23,-15.599 35,-20.758 7.87,-3.18 16.11,-5.052 24,-8.065 6.26,-2.393 12.5,-4.144 19,-5.761 3.04,-0.756 6.84,-2.255 10,-1.585 4.23,0.9 7.55,5.531 11,7.958 -9.28,-13.177 -24.31,-22.616 -37,-32.231 -5.18,-3.926 -11.25,-10.026 -18,-10.657 -10.27,-0.959 -21.12,6.287 -30,10.41 -3.91,1.818 -8.2,2.611 -12,4.727 -22.79,12.69 -43.2,30.701 -61.82,48.881 -56.574,55.243 -113.168,110.079 -169.325,165.791 -20.794,20.629 -42.753,40.006 -63.765,60.253 -3.289,3.169 -5.654,7.132 -8.895,10.348 -5.909,5.863 -12.328,11.262 -17.767,17.648 -6.728,7.9 -13.19197,17.22286 -18.008,26.83 -2.81386,7.26559 -0.28649,0.68892 -6.2691,19.41049"
   stroke-linecap="round"
   id="path3"
   sodipodi:nodetypes="ccccscccsscsccccccccccccccccccc"
   transform="translate(-969.5,-766)" />
</g>
<g
   transform="matrix(0.8,0,0,0.8,467.16178,331.64822)"
   id="g4">
<path
   style="display:inline;opacity:1;fill:#104648;fill-rule:nonzero;stroke:none;stroke-width:1;stroke-linecap:butt;stroke-linejoin:miter;stroke-miterlimit:4;stroke-dasharray:none;stroke-dashoffset:0"
   vector-effect="non-scaling-stroke"
   transform="translate(-985.39,-747.77)"
   d="m 820,942 c -2.771,-7.204 -8.446,-13.356 -12.396,-20 -1.648,-2.772 -4.53,-6.563 -3.788,-10 0.698,-3.23 3.976,-5.776 6.185,-8 L 826,888 c 13.366,-13.366 27.351,-25.988 41,-39.039 8.415,-8.046 16.205,-16.745 25,-24.385 22.385,-19.447 42.903,-41.726 64,-62.572 36.992,-36.552 74.44,-73.282 113,-108.174 13.13,-11.876 24.7,-24.75 39,-35.352 17.82,-13.209 40.58,-22.234 62,-27.514 7.58,-1.867 15.15,-3.802 23,-3.964 -6.35,-9.605 -15.34,-17.905 -24,-25.424 -2.96,-2.569 -6.09,-6.751 -10,-7.802 -2.81,-0.756 -6.26,0.462 -9,1.11 -6.39,1.513 -12.87,2.942 -19,5.32 -20.55,7.975 -40.02,13.335 -58,26.926 -23.81,17.999 -43.49,41.259 -65,61.831 -45.997,43.982 -90.997,89.011 -137,133 -17.819,17.038 -34.931,35.058 -53.039,51.753 -13.044,12.027 -31.043,25.846 -38.683,42.286 -2.673,5.752 -1.302,13.23 0.535,19 4.783,15.02 14.653,26.412 26.187,36.83 4.264,3.851 8.685,7.92 14,10.17 z"
   stroke-linecap="round"
   id="path4" />
</g>
<g
   transform="matrix(0.8,0,0,0.8,613.56178,325.42822)"
   id="g5">
<path
   style="display:inline;opacity:1;fill:#69da7e;fill-rule:nonzero;stroke:none;stroke-width:1;stroke-linecap:butt;stroke-linejoin:miter;stroke-miterlimit:4;stroke-dasharray:none;stroke-dashoffset:0"
   vector-effect="non-scaling-stroke"
   transform="translate(-1169,-740)"
   d="m 859,891 c 1.899,6.422 8.362,11.08 13.17,15.464 7.326,6.679 13.72,14.823 21.83,20.536 1.26,-5.505 6.073,-8.284 10,-12.039 8.075,-7.722 15.559,-16.053 24,-23.385 8.102,-7.039 15.248,-15.124 23,-22.537 18.077,-17.285 36.3,-34.339 54,-52.039 29.97,-29.973 60.99,-59.199 92,-88.089 18.86,-17.566 36.01,-36.996 57,-52.166 38.23,-27.634 87.01,-40.863 134,-39.73 37.25,0.897 74.4,11.039 110,21.076 15.88,4.478 32.04,8.02 48,12.194 11.04,2.887 21.78,6.6 33,8.715 -5.69,-7.421 -14.82,-12.32 -22,-18.25 -18.57,-15.331 -38.34,-30.931 -59.96,-41.694 -23.71,-11.805 -46.89,-18.805 -73.04,-23.136 -63.96,-10.596 -134.47,3.025 -189,37.984 -16.88,10.82 -31.05,24.766 -45.28,38.668 -11.12,10.86 -22.73,21.177 -33.97,31.914 -42.83,40.942 -85.948,81.693 -128.711,122.607 C 904.811,848.36 883.582,872.421 859,891"
   stroke-linecap="round"
   id="path5"
   sodipodi:nodetypes="cccccccccccccccccccsc" />
</g>
<g
   transform="matrix(0.8,0,0,0.8,692.14178,381.71822)"
   id="g6">
<path
   style="display:inline;opacity:1;fill:#104648;fill-rule:nonzero;stroke:none;stroke-width:1;stroke-linecap:butt;stroke-linejoin:miter;stroke-miterlimit:4;stroke-dasharray:none;stroke-dashoffset:0"
   vector-effect="non-scaling-stroke"
   transform="translate(-1267.51,-811)"
   d="m 923,957 c 10.157,-7.155 19.213,-17.213 28,-26 13.767,-13.767 27.749,-27.636 42,-40.911 55.71,-51.894 109.96,-105.519 165,-158.128 14.09,-13.464 29.44,-26.37 47,-35.152 25.21,-12.608 53.14,-16.809 81,-16.809 13.34,0 30.53,-1.308 43,4.214 4.75,2.102 8.17,6.133 12,9.5 9.74,8.577 18.27,18.422 28,27 37.67,33.229 72.7,69.536 109,104.247 28.45,27.205 56.55,54.792 85,82 19.2,18.357 40.18,37.477 40.87,66.039 0.1,4.026 -1.11,8.073 -1.87,12 14.82,-8.334 24.39,-24.557 39,-33 -2.52,-8.982 -13.55,-16.548 -20,-23 -17.18,-17.182 -34.83,-33.826 -52,-51 -65.02,-65.015 -132.99,-126.986 -198,-192 15.34,0 30.69,1.29 46,1.961 26.24,1.149 52.74,1.039 79,1.039 -7.77,-7.828 -18.01,-9.473 -28,-12.671 -22.67,-7.253 -46.12,-11.787 -69,-18.238 -35.52,-10.013 -71.93,-19.428 -109,-21.052 -5.77,-0.253 -11.28,0.671 -17,0.922 -28.33,1.24 -56.8,5.88 -83,17.372 -36.61,16.06 -63.87,44.214 -92,71.652 -21.76,21.227 -44.48,41.534 -66,63.015 -33.456,33.402 -67.407,66.687 -102,98.911 -9.16,8.532 -17.95,17.396 -27,26.05 -2.724,2.605 -8.566,5.917 -8.963,10.043 -0.376,3.907 4.544,7.563 6.964,9.996 7.323,7.362 14.63,14.692 21.999,22 z"
   stroke-linecap="round"
   id="path6" />
</g>


<g
   transform="matrix(0.8,0,0,0.8,681.66178,618.22822)"
   id="g9">
<path
   style="display:inline;opacity:1;fill:#69da7e;fill-rule:nonzero;stroke:none;stroke-width:1;stroke-linecap:butt;stroke-linejoin:miter;stroke-miterlimit:4;stroke-dasharray:none;stroke-dashoffset:0"
   vector-effect="non-scaling-stroke"
   transform="translate(-1253.89,-1107)"
   d="M 1370.2037,686.18273 C 1375.5365,691.73034 1385.13,701.132 1392,708 c 13.68,13.68 27.0981,27.07596 41.8619,40.27621 12.2137,12.82975 24.7006,23.85929 37.2006,36.05129 37.13,36.218 74.8175,72.4435 111.9375,108.6575 13.33,13.003 26.82,25.832 40,39.015 6.05,6.051 13.5362,12.176 17.1862,20 -7.41,2.87 -11.4262,9.618 -17.1862,14.83 -6.13,5.545 -15.2383,12.68651 -21.238,18.37345 L 1552.29,1040 c -28.53,33.23 -56.74,66.52 -86.12,99 -35.03,38.73 -70.69,76.62 -107.16,114 -33.84,34.7 -68.09,68.48 -106.01,98.8 -32.32,25.84 -67.05,49.1 -102,71.2 -9.37,5.92 -18.5,12.29 -28,18 -3.53,2.12 -7.87,5.75 -12,6.47 -3.08,0.54 -5.58,-1.82 -7.99,-3.38 -6.96,-4.51 -13.48,-9.96 -20.01,-15.09 -15.95,-12.54 -32.01,-24.94 -48,-37.42 -8.34,-6.51 -16.17,-13.95 -25,-19.79 -8.38,-5.54 -19.68,-1.9 -29,-1.79 -11.682,0.14 -23.374,0.86 -35,1 -12.694,0.15 -25.395,-0.59 -38,1 3.604,7.78 11.01,14.01 17,20 l 30,30 68,68 c 12.78,12.78 25.17,27.56 40,38 -1.53,-2.21 -3.14,-4.05 -5,-6 18.39,-1.5 35.54,-12.44 51,-21.6 32.48,-19.26 62.5,-42.63 94,-63.4 31.77,-20.94 63.86,-41.59 96,-61.95 8.55,-5.41 17.19,-10.66 26,-15.63 5.42,-3.05 11.24,-5.54 16,-9.63 7.66,-6.59 13.66,-15.22 20.29,-22.79 15.09,-17.24 29.96,-34.69 44.99,-52 53.17,-61.22 103.43,-125.07 154.52,-188 24.19,-29.79 51.18,-56.97 77.29,-85 10,-10.739 21.92,-20.121 30.62,-32 15.59,-21.278 15.05,-46.837 4.29,-70 1.95,1.863 3.79,3.468 6,5 -4.55,-6.408 -11.36,-10.645 -17,-16.039 -11.42,-10.915 -22.59,-22.091 -34,-33 -37.64,-35.992 -74.8,-72.57 -112.01,-109 -14.6,-14.289 -28.97,-29.238 -44.7,-42.255 -6.56,-5.42 -13.7748,-15.39695 -20.0046,-15.94667 l -19.0036,-0.70408"
   stroke-linecap="round"
   id="path9"
   sodipodi:nodetypes="cccccscccccccccccccccccscscccccccccccccccccccc" />
</g>
<g
   transform="matrix(0.8,0,0,0.8,741.81178,425.64822)"
   id="g10">
<path
   style="display:inline;opacity:1;fill:#104648;fill-rule:nonzero;stroke:none;stroke-width:1;stroke-linecap:butt;stroke-linejoin:miter;stroke-miterlimit:4;stroke-dasharray:none;stroke-dashoffset:0"
   vector-effect="non-scaling-stroke"
   transform="translate(-1332.05,-866.47)"
   d="m 1220,718 c 9.99,11.544 22.09,21.374 33,32.015 35.08,34.225 72.24,66.592 105.17,102.985 7.34,8.116 15.4,15.522 22.37,24 16.59,20.195 29.63,44.928 37.02,70 5.5,18.643 6.68,39.663 5.35,59 -0.37,5.37 -1.5274,11.2049 -1.7574,16.5849 6.65,-7.29 11.0674,-19.5449 14.9774,-28.5849 4.04,-9.334 7.1216,-19.859 7.8259,-30 3.039,-19.73886 -7.1459,-40.41 -18.2559,-56 -20.47,-28.725 -49.17,-51.664 -75.7,-74.575 -10.83,-9.353 -24.51,-18.896 -33,-30.425 29.1,6.004 58.36,13.594 86,24.649 11.25,4.5 21.04,11.742 32,16.351 -3.16,-6.784 -9.84,-11.65 -14.96,-17 -10.93,-11.428 -21.85,-22.807 -33.04,-34 -25.28,-25.276 -50.12,-56.092 -83,-71.738 -12.14,-5.775 -25.67,-8.818 -39,-10.092 -7.41,-0.708 -14.69,0.327 -22,1.409 -7.86,1.163 -15.65,2.257 -23,5.421 z"
   stroke-linecap="round"
   id="path10"
   sodipodi:nodetypes="cccccccccccccccccccc" />
</g>
<g
   transform="matrix(0.8,0,0,0.8,559.16178,562.47822)"
   id="g11">
<path
   style="display:inline;opacity:1;fill:#69da7e;fill-rule:nonzero;stroke:none;stroke-width:1;stroke-linecap:butt;stroke-linejoin:miter;stroke-miterlimit:4;stroke-dasharray:none;stroke-dashoffset:0"
   vector-effect="non-scaling-stroke"
   d="m 1158,791 c 4.36,9.491 14.33,17.398 21.96,24.271 5.89,5.31 11.32,11.264 17.02,16.804 29.17,28.402 58.23,57.146 87.02,85.925 l 30,30 c 4.1,4.096 10.69,8.912 11.68,15 2.53,15.515 -13.07,29.386 -22.68,39 -26.67,26.67 -54.32,52.36 -81,79 -25.03,24.99 -51,49 -76,74 -19.95,19.95 -39.7,40.97 -62.17,58.1 -21.8,16.63 -47.17,28.37 -73.83,34.56 -51.778,12.03 -103.295,-0.27 -155,-5.83 -10.448,-1.12 -20.66,-3.61 -31,-5.27 -6.365,-1.02 -12.529,-2.7 -19,-1.63 -9.974,1.65 -18.507,8.26 -27,13.34 -15.037,8.99 -29.896,18.31 -44,28.73 v 2 c 12.166,5.16 29.91,1.94 43,2 21.499,0.1 43.609,3.1 65,5.17 17.081,1.65 34.002,5.25 51,7.54 47.464,6.4 99.615,8.5 146,-5.68 27.78,-8.5 54.22,-21.62 77,-39.7 19.83,-15.74 37.03,-34.57 55,-52.33 24.74,-24.44 49.76,-48.78 74.91,-72.82 21.84,-20.87 42.99,-42.5 65.09,-63.09 16.07,-14.97 34.17,-30.01 45.55,-49.09 19.25,-32.293 15.7,-78.607 -7.55,-108 h 2 c -9.37,-13.304 -23.49,-24.494 -35,-36 l -68,-68 -26,-26 c -2.92,-2.922 -6.68,-8.291 -11,-9.056 -4.59,-0.814 -11.22,4.416 -14.99,6.635 -12.49,7.373 -24.79,14.37 -38.01,20.421 m 163.6431,22.72933 c 8.25,8.133 18.9458,15.96409 27.5258,23.71209 30.3959,30.14616 70.0659,56.60109 86.5759,97.59309 7.76,19.265 3.9324,41.51275 -4.7978,59.98275 -3.15,6.69004 -5.1585,12.43014 -8.8885,18.83014 l -12.4237,21.4769 c -7.16,12.96 -9.885,16.4357 -19.315,27.6757 -18.15,21.65 -37.71,41.63 -57.28,62 -26.14,27.2 -53.49,53.18 -80.03,80 -30.31,30.65 -59.47,62.53 -91.01,91.91 -12.39,11.54 -25.97,23.29 -40,32.8 -10.31,6.99 -21.62,12.31 -32,19.16 -4.65,3.06 -9.75,5.56 -15,7.44 -2.78,0.99 -7.14,1.51 -9.34,3.58 -1.88,1.78 -0.06,3.07 1.34,4.11 0,-3.1 5.21,-2.61 8,-3 9.38,-1.3 18.67,-3.35 28,-5.17 37.63,-7.31 72.1,-28.93 99,-55.83 57.19,-57.19 113.86,-114.86 171,-172 19.69,-19.69 39.38,-39.37 58,-60 17.21,-19.07 35.36,-36.71 48.67,-59 9.88,-16.553 16.46,-35.749 18.33,-55 0.66,-6.753 -1.27,-13.385 -2,-20 -7.1504,-36.43347 -29.2906,-66.90029 -65.2427,-90.48457 -22.4938,-14.75575 -51.2493,-25.85586 -85.7573,-33.84843 -9.23,-2.18 -22.9505,-6.29848 -32.4505,-7.04848"
   stroke-linecap="round"
   id="path11"
   sodipodi:nodetypes="ccccccccsccccccccccccccccccccccccccccccccccccccccccssccccscc"
   transform="translate(-1099.5,-1037.5)" />
</g>
<g
   transform="matrix(0.8,0,0,0.8,727.10178,643.49822)"
   id="g12">
<path
   style="display:inline;opacity:1;fill:#104648;fill-rule:nonzero;stroke:none;stroke-width:1;stroke-linecap:butt;stroke-linejoin:miter;stroke-miterlimit:4;stroke-dasharray:none;stroke-dashoffset:0"
   vector-effect="non-scaling-stroke"
   transform="translate(-1312.5,-1140.09)"
   d="m 1477,885 c 3.71,8.939 9.58,16.748 12.91,26 4.42,12.282 8.29,26.844 8.04,40 -0.31,15.73 -5.79,30.9 -12.26,45 -12.18,26.53 -32.73,48.16 -52.65,69 -18.92,19.78 -37.67,39.63 -57.04,59 -43.5,43.5 -86.49,87.49 -130,131 -25.76,25.76 -50.53,54.32 -81,74.65 -28.47,18.98 -65.03,29.67 -99,32.35 8.75,9.58 21.29,17.37 32,24.66 4.18,2.84 8.92,7.09 14,8.06 11.29,2.15 26.45,-3.87 37,-7.39 35.81,-11.92 65.61,-34.94 92,-61.33 59.36,-59.36 120,-117.31 178.04,-178 27.28,-28.53 56.33,-57.13 79.8,-89 12.73,-17.28 21.34,-36.84 32.58,-55 5.95,-9.594 12.35,-18.887 19.01,-27.999 2.75,-3.778 6.48,-6.846 8.57,-11.001 -6.85,-5.52 -12.76,-12.757 -19,-19 l -38,-38 c -7.45,-7.453 -15.38,-18.516 -25,-23 z"
   stroke-linecap="round"
   id="path12" />
</g>

<g
   transform="matrix(0.8,0,0,0.8,785.66178,709.39822)"
   id="g14">
<path
   style="display:inline;opacity:1;fill:#104648;fill-rule:nonzero;stroke:none;stroke-width:1;stroke-linecap:butt;stroke-linejoin:miter;stroke-miterlimit:4;stroke-dasharray:none;stroke-dashoffset:0"
   vector-effect="non-scaling-stroke"
   transform="translate(-1385.64,-1222.58)"
   d="m 1673,900 c 4.13,13.072 9.25,24.773 7.83,39 -2.23,22.274 -17.86,37.026 -32.83,52 -10.84,10.84 -21.22,22.09 -32,33 -21.9,22.17 -41.58,46.39 -61.87,70 -124.1327,142.0365 -118.8701,144.3114 -349.2817,341.3724 -30.86,20.35 -63.1183,44.8276 -94.8483,63.8276 -16.05,9.61 -33.08,20.25 -52,22.8 6.73,9.35 18.3,15.1 29,18.67 6.77,2.25 13.89,3.48 21,4.16 44.97,4.3 77.08,-34.54 106,-62.84 8.76,-8.57 17.29,-17.38 26,-25.99 40.23,-39.75 81.12,-78.95 122,-118.04 13.61,-13.02 26.39,-26.9 40,-39.92 76.85,-73.49 152.85,-147.9 230,-221.08 10.4,-9.86 20.51,-20.1 31,-29.87 12.43,-11.58 26.74,-23.11 36.56,-37.09 13.56,-19.313 17.83,-45.716 9.37,-68 -2.8,-7.375 -7.11,-14.027 -12.23,-20 -6.88,-8.031 -14.96,-16.024 -23.7,-22 z"
   stroke-linecap="round"
   id="path14"
   sodipodi:nodetypes="cccccccccccccccccscc" />
</g>

<g
   transform="matrix(0.8,0,0,0.8,522.78178,628.73822)"
   id="g16">
<path
   style="display:inline;opacity:1;fill:#104648;fill-rule:nonzero;stroke:none;stroke-width:1;stroke-linecap:butt;stroke-linejoin:miter;stroke-miterlimit:4;stroke-dasharray:none;stroke-dashoffset:0"
   vector-effect="non-scaling-stroke"
   transform="translate(-1054.5,-1121.79)"
   d="m 1349,903 c 6.74,11.84 13.17,22.566 16.52,36 2.27,9.045 3.85,18.648 3.44,28 -1.44,32.852 -19.71,54.75 -41.96,77 -16.67,16.67 -34.33,32.33 -51,49 -34.51,34.51 -70.08,67.95 -105,102.01 -27.83,27.15 -54,56.87 -89,75.05 -31.06,16.13 -66.1,25.45 -101,27.85 -12.851,0.89 -26.118,0.24 -39,0.09 -23.061,-0.28 -46.254,-4.21 -69,-7.73 -24.224,-3.74 -48.589,-5.69 -73,-7.36 -8.021,-0.55 -15.94,-1.91 -24,-1.91 -12.847,0 -26.211,-1.05 -39,0.17 -4.848,0.46 -11.069,0.55 -14,4.83 16.499,1.35 34.064,7.15 50,11.58 34.467,9.58 68.426,21.45 103,30.54 86.257,22.68 181.6,16.62 256,-36.55 23.84,-17.03 44.11,-38.18 65,-58.56 19.74,-19.25 39.82,-38.3 60,-57.1 20.66,-19.25 40.91,-39.06 61,-58.91 15.65,-15.46 31.83,-29.83 44.56,-48 18.72,-26.71 26.05,-59.82 22.61,-92 -2.3,-21.405 -9.32,-40.423 -21.88,-58 -3.97,-5.561 -8.08,-12.856 -14.29,-16 z"
   stroke-linecap="round"
   id="path16" />
</g>
<g
   transform="matrix(0.8,0,0,0.8,295.93178,598.41822)"
   id="g17">
<path
   style="display:inline;opacity:1;fill:#104648;fill-rule:nonzero;stroke:none;stroke-width:1;stroke-linecap:butt;stroke-linejoin:miter;stroke-miterlimit:4;stroke-dasharray:none;stroke-dashoffset:0"
   vector-effect="non-scaling-stroke"
   transform="translate(-770.5,-1084.5)"
   d="m 664,986 c 28.168,45.23 69.71,80.71 107,118 31.342,31.34 61.864,66.38 106,79 -4.68,-9.02 -14.006,-16.57 -20.911,-24 -12.88,-13.85 -25.703,-27.61 -39.089,-41 -29.131,-29.13 -57.457,-59.53 -88,-87.17 -15.254,-13.8 -29.947,-25.67 -48,-35.691 -5.594,-3.105 -10.986,-6.937 -17,-9.139 z"
   stroke-linecap="round"
   id="path17" />
</g>
<g
   transform="matrix(0.8,0,0,0.8,611.12178,621.01822)"
   id="g18">
<path
   style="display:inline;opacity:1;fill:#69da7e;fill-rule:nonzero;stroke:none;stroke-width:1;stroke-linecap:butt;stroke-linejoin:miter;stroke-miterlimit:4;stroke-dasharray:none;stroke-dashoffset:0"
   vector-effect="non-scaling-stroke"
   transform="translate(-1163.5,-1109)"
   d="m 878,1096 c 9.536,16.58 25.646,31.61 40,44 15.146,13.07 29.506,26.59 48,34.91 35.1813,19.0993 87.4738,10.7873 117,-19.92 10.38,-10.16 21.0952,-23.706 27.6022,-38.2697 -9.75,3.8 -19.1622,12.0097 -28.6022,16.5497 -26.12,12.56 -53.74,15.1 -81,4.52 -11.706,-4.54 -23.81169,-17.4995 -35.45269,-22.3795 l -5.66629,-0.8857 c -7.047,-0.75 -12.21894,-1.7383 -19.88102,-2.9248 -20.929,-4.19 -41.271,-11.17 -62,-15.6"
   stroke-linecap="round"
   id="path18"
   sodipodi:nodetypes="ccccccccccc" />
</g>
<g
   transform="matrix(0.8,0,0,0.8,367.88178,722.11822)"
   id="g19">
<path
   style="display:inline;opacity:1;fill:#104648;fill-rule:nonzero;stroke:none;stroke-width:1;stroke-linecap:butt;stroke-linejoin:miter;stroke-miterlimit:4;stroke-dasharray:none;stroke-dashoffset:0"
   vector-effect="non-scaling-stroke"
   d="m -59.467303,-3.913714 c 6.439,5.27 21.257497,2.6158399 29.153497,4.57583992 15.948,3.95999998 32.7130002,5.17999998 49,7.15999998 11.951,1.44 23.964,4.3200001 36,4.8400001 -6.543,-4.0000001 -15.655,-5.2500001 -23,-7.4400001 -8.859,-2.64 -17.867,-6.71 -26.9999998,-8.23 -4.60599996,-0.77 -9.359,-0.1 -14,-0.42 -15.6180002,-1.07 -34.5174972,0.1841601 -50.1534972,-0.4858399 z"
   stroke-linecap="round"
   id="path19"
   sodipodi:nodetypes="cccccccc" />
</g>
</svg>
